<svg width="48" height="24" viewBox="0 0 48 24" fill="none" xmlns="http://www.w3.org/2000/svg">
<g clip-path="url(#clip0_129_138)">
<mask id="mask0_129_138" style="mask-type:luminance" maskUnits="userSpaceOnUse" x="-202" y="-56" width="455" height="467">
<path d="M-201.708 410.483H252.788V-55.4709H-201.708V410.483Z" fill="white"/>
</mask>
<g mask="url(#mask0_129_138)">
<path d="M24.907 20.8071C23.9794 20.7437 22.9097 20.577 22.066 20.3265C21.908 20.2796 21.2537 20.033 21.0872 19.9547C18.15 18.5599 16.1038 15.515 16.1038 11.9824C16.1038 7.13714 19.9488 3.1905 24.678 3.1905C29.3652 3.1905 33.1842 7.06983 33.2499 11.8603H36.3474C36.2817 5.31959 31.0739 0.0187855 24.678 0.0187855C18.2439 0.0187855 13.0071 5.38456 13.0071 11.9824C13.0071 16.531 15.5022 20.487 19.1556 22.5081C19.8152 22.8658 20.762 23.2345 21.0834 23.3354C22.1248 23.6532 23.4029 23.8646 24.5406 23.953C24.9269 23.9828 26.276 23.9984 26.6692 24H48V20.8369H26.7051C26.4218 20.8369 25.1842 20.8259 24.907 20.8071ZM26.7051 15.8406C26.4799 15.8406 25.3018 15.8328 25.0842 15.814C24.7154 15.7819 24.181 15.7255 23.8374 15.6449C23.4495 15.5384 23.0853 15.3975 22.9212 15.3052C21.7706 14.6672 20.9865 13.4195 20.9865 11.9824C20.9865 9.89165 22.6379 8.19621 24.678 8.19621C26.6753 8.19621 28.2993 9.82512 28.3642 11.8603H31.3403C31.2777 8.1422 28.3214 5.14582 24.678 5.14582C20.9941 5.14582 18.008 8.20639 18.008 11.9824C18.008 14.6453 19.4969 16.945 21.6652 18.0714C21.9989 18.2718 22.6265 18.4816 22.8051 18.5293C23.4174 18.6945 24.2397 18.8072 24.907 18.8573C25.1537 18.8784 26.3615 18.8878 26.6165 18.8894V18.8941H47.9992V15.8406H26.7051ZM11.0983 23.9883H7.98015V3.19755H3.42356V-1.90735e-06H11.0983V23.9883ZM0 4.79515V7.8698H3.42356V23.9883H6.41955V4.79515H0Z" fill="#0B9FE9"/>
<path d="M42.4903 0.223324C41.3671 0.223324 40.4357 1.14149 40.4357 2.29371C40.4357 3.44592 41.3671 4.40088 42.4903 4.40088C43.6477 4.40088 44.5433 3.44592 44.5433 2.29371C44.5433 1.14149 43.6477 0.223324 42.4903 0.223324ZM42.4903 4.06116C41.5626 4.06116 40.7632 3.31363 40.7632 2.29371C40.7632 1.32544 41.5626 0.559125 42.4903 0.559125C43.4172 0.559125 44.2127 1.32544 44.2127 2.29371C44.2127 3.31363 43.4172 4.06116 42.4903 4.06116Z" fill="#0B9FE9"/>
<path d="M43.2725 2.86107C43.2725 2.62859 43.239 2.41255 42.9794 2.32723C43.3046 2.21138 43.3367 1.99299 43.3367 1.86071C43.3367 1.32609 42.8633 1.25799 42.6686 1.25799H41.773V3.32837H42.1464V2.47908H42.4403C42.8633 2.47908 42.8984 2.67868 42.8984 2.86107C42.8984 3.21409 42.8984 3.28062 42.9794 3.32837H43.3535C43.2725 3.24461 43.3046 3.17965 43.2725 2.86107ZM42.5869 2.17694H42.1464V1.52491H42.5236C42.7847 1.52491 42.9618 1.60944 42.9618 1.86071C42.9618 1.99299 42.8984 2.17694 42.5869 2.17694Z" fill="#0B9FE9"/>
</g>
</g>
<defs>
<clipPath id="clip0_129_138">
<rect width="48" height="24" fill="white"/>
</clipPath>
</defs>
</svg>
