<svg width="24" height="24" viewBox="0 0 24 24" fill="none" xmlns="http://www.w3.org/2000/svg">
<g clip-path="url(#clip0_129_1581)">
<path d="M11.9998 0.923584C9.06296 0.92676 6.24734 2.09481 4.1707 4.17145C2.09407 6.24809 0.926017 9.0637 0.922841 12.0005C0.806533 20.8371 11.2235 26.2427 18.369 21.0624C18.4717 20.994 18.5596 20.9059 18.6277 20.803C18.6957 20.7001 18.7424 20.5847 18.7651 20.4635C18.7878 20.3422 18.7859 20.2177 18.7597 20.0972C18.7334 19.9767 18.6832 19.8627 18.6122 19.7619C18.5411 19.6611 18.4506 19.5756 18.3459 19.5103C18.2412 19.4451 18.1246 19.4015 18.0028 19.3822C17.881 19.3628 17.7565 19.368 17.6368 19.3975C17.5171 19.4271 17.4044 19.4803 17.3056 19.554C11.3536 23.8676 2.67669 19.3648 2.76899 12.0005C3.27576 -0.245031 20.7256 -0.242262 21.2305 12.0005V13.8467C21.2305 14.3363 21.036 14.8059 20.6898 15.1521C20.3436 15.4983 19.874 15.6928 19.3844 15.6928C18.8947 15.6928 18.4252 15.4983 18.079 15.1521C17.7327 14.8059 17.5382 14.3363 17.5382 13.8467V12.0005C17.3056 4.68143 6.693 4.68235 6.4613 12.0005C6.47205 13.123 6.82264 14.2158 7.46689 15.1351C8.11113 16.0543 9.01878 16.7567 10.0702 17.1498C11.1216 17.5429 12.2675 17.6082 13.3568 17.337C14.446 17.0659 15.4276 16.4711 16.1721 15.631C16.5725 16.3377 17.1948 16.8927 17.9426 17.2099C18.6904 17.5271 19.5219 17.5889 20.3084 17.3856C21.0948 17.1824 21.7923 16.7255 22.2928 16.0857C22.7933 15.4459 23.0688 14.6589 23.0767 13.8467V12.0005C23.0735 9.0637 21.9055 6.24809 19.8288 4.17145C17.7522 2.09481 14.9366 0.92676 11.9998 0.923584ZM11.9998 15.6928C11.0205 15.6928 10.0814 15.3038 9.38891 14.6114C8.69647 13.9189 8.30746 12.9798 8.30746 12.0005C8.30746 11.0212 8.69647 10.0821 9.38891 9.38965C10.0814 8.69721 11.0205 8.3082 11.9998 8.3082C12.979 8.3082 13.9182 8.69721 14.6106 9.38965C15.3031 10.0821 15.6921 11.0212 15.6921 12.0005C15.6921 12.9798 15.3031 13.9189 14.6106 14.6114C13.9182 15.3038 12.979 15.6928 11.9998 15.6928Z" fill="#0B9FE9" stroke="#0B9FE9"/>
</g>
<defs>
<clipPath id="clip0_129_1581">
<rect width="24" height="24" fill="white"/>
</clipPath>
</defs>
</svg>
