<svg width="24" height="24" viewBox="0 0 24 24" fill="none" xmlns="http://www.w3.org/2000/svg">
<g clip-path="url(#clip0_129_332)">
<path d="M11.9999 0.92334C9.06314 0.926516 6.24753 2.09457 4.17089 4.1712C2.09425 6.24784 0.9262 9.06346 0.923024 12.0003C0.806716 20.8369 11.2236 26.2424 18.3692 21.0621C18.4719 20.9938 18.5598 20.9056 18.6279 20.8028C18.6959 20.6999 18.7426 20.5844 18.7653 20.4632C18.788 20.342 18.7861 20.2174 18.7598 20.097C18.7336 19.9765 18.6834 19.8624 18.6124 19.7616C18.5413 19.6609 18.4508 19.5753 18.3461 19.5101C18.2414 19.4449 18.1248 19.4013 18.003 19.3819C17.8812 19.3625 17.7567 19.3678 17.637 19.3973C17.5172 19.4268 17.4046 19.48 17.3058 19.5538C11.3538 23.8673 2.67687 19.3646 2.76918 12.0003C3.27595 -0.245275 20.7258 -0.242506 21.2307 12.0003V13.8464C21.2307 14.336 21.0362 14.8056 20.69 15.1518C20.3438 15.4981 19.8742 15.6926 19.3846 15.6926C18.8949 15.6926 18.4254 15.4981 18.0791 15.1518C17.7329 14.8056 17.5384 14.336 17.5384 13.8464V12.0003C17.3058 4.68119 6.69318 4.68211 6.46149 12.0003C6.47223 13.1227 6.82283 14.2156 7.46707 15.1348C8.11131 16.054 9.01896 16.7565 10.0704 17.1496C11.1218 17.5427 12.2677 17.6079 13.357 17.3368C14.4462 17.0657 15.4278 16.4708 16.1723 15.6307C16.5727 16.3375 17.195 16.8924 17.9428 17.2096C18.6906 17.5269 19.5221 17.5886 20.3086 17.3854C21.095 17.1822 21.7925 16.7253 22.293 16.0855C22.7935 15.4457 23.069 14.6587 23.0769 13.8464V12.0003C23.0737 9.06346 21.9056 6.24784 19.829 4.1712C17.7524 2.09457 14.9368 0.926516 11.9999 0.92334ZM11.9999 15.6926C11.0207 15.6926 10.0815 15.3036 9.38909 14.6111C8.69665 13.9187 8.30764 12.9795 8.30764 12.0003C8.30764 11.021 8.69665 10.0818 9.38909 9.38941C10.0815 8.69697 11.0207 8.30796 11.9999 8.30796C12.9792 8.30796 13.9184 8.69697 14.6108 9.38941C15.3032 10.0818 15.6923 11.021 15.6923 12.0003C15.6923 12.9795 15.3032 13.9187 14.6108 14.6111C13.9184 15.3036 12.9792 15.6926 11.9999 15.6926Z" fill="#8EC2F2" stroke="#8EC2F2"/>
</g>
<defs>
<clipPath id="clip0_129_332">
<rect width="24" height="24" fill="white"/>
</clipPath>
</defs>
</svg>
