<svg width="60" height="60" viewBox="0 0 60 60" fill="none" xmlns="http://www.w3.org/2000/svg">
<g clip-path="url(#clip0_129_700)">
<path d="M23.5501 45.03C23.2026 45.01 22.8526 45 22.5001 45C14.6376 45 8.45258 49.845 7.46258 56.78C7.19508 58.65 5.59008 60 3.75508 60C3.57758 60 3.40008 59.9875 3.22008 59.9625C1.17008 59.67 -0.254924 57.77 0.0375761 55.72C1.57008 44.9925 10.8076 37.5 22.5001 37.5C22.9876 37.5 23.4701 37.515 23.9501 37.54C26.0201 37.65 27.6051 39.4175 27.4951 41.485C27.3851 43.5525 25.5901 45.1175 23.5501 45.03ZM2.50008 16.25C2.50008 14.18 4.17758 12.5 6.25008 12.5H7.50008C7.50008 6.0175 12.4326 0.69 18.7501 0.0625V6.25C18.7501 8.32 20.4301 10 22.5001 10C24.5701 10 26.2501 8.32 26.2501 6.25V0.0625C32.5676 0.69 37.5001 6.02 37.5001 12.5H38.7501C40.8201 12.5 42.5001 14.18 42.5001 16.25C42.5001 18.32 40.8201 20 38.7501 20H37.5001C37.5001 28.2725 30.7726 35 22.5001 35C14.2276 35 7.50008 28.2725 7.50008 20H6.25008C4.17758 20 2.50008 18.32 2.50008 16.25ZM30.0001 20H15.0001C15.0001 24.135 18.3651 27.5 22.5001 27.5C26.6351 27.5 30.0001 24.135 30.0001 20ZM56.2501 52.5H48.7501C46.6801 52.5 45.0001 54.18 45.0001 56.25C45.0001 58.32 46.6801 60 48.7501 60H56.2501C58.3201 60 60.0001 58.32 60.0001 56.25C60.0001 54.18 58.3201 52.5 56.2501 52.5ZM48.7501 35H56.2501C58.3201 35 60.0001 33.32 60.0001 31.25C60.0001 29.18 58.3201 27.5 56.2501 27.5H48.7501C46.6801 27.5 45.0001 29.18 45.0001 31.25C45.0001 33.32 46.6801 35 48.7501 35ZM36.2501 52.5H28.7501C26.6776 52.5 25.0001 54.18 25.0001 56.25C25.0001 58.32 26.6776 60 28.7501 60H36.2501C38.3201 60 40.0001 58.32 40.0001 56.25C40.0001 54.18 38.3201 52.5 36.2501 52.5ZM41.2501 40H36.2501C34.1801 40 32.5001 41.68 32.5001 43.75C32.5001 45.82 34.1801 47.5 36.2501 47.5H41.2501C43.3201 47.5 45.0001 45.82 45.0001 43.75C45.0001 41.68 43.3201 40 41.2501 40ZM56.2501 40H53.7501C51.6801 40 50.0001 41.68 50.0001 43.75C50.0001 45.82 51.6801 47.5 53.7501 47.5H56.2501C58.3201 47.5 60.0001 45.82 60.0001 43.75C60.0001 41.68 58.3201 40 56.2501 40Z" fill="#252B42"/>
</g>
<defs>
<clipPath id="clip0_129_700">
<rect width="60" height="60" fill="white"/>
</clipPath>
</defs>
</svg>
