<svg width="19" height="24" viewBox="0 0 19 24" fill="none" xmlns="http://www.w3.org/2000/svg">
<g clip-path="url(#clip0_129_1598)">
<path d="M9.49995 14.4C12.1195 14.4 14.2499 12.2472 14.2499 9.60005C14.2499 6.95285 12.1195 4.80005 9.49995 4.80005C6.88035 4.80005 4.75 6.95285 4.75 9.60005C4.75 12.2472 6.88035 14.4 9.49995 14.4ZM9.49995 7.20005C10.8097 7.20005 11.8749 8.27645 11.8749 9.60005C11.8749 10.9236 10.8097 12 9.49995 12C8.19015 12 7.12497 10.9236 7.12497 9.60005C7.12497 8.27645 8.19015 7.20005 9.49995 7.20005Z" fill="#0B9FE9"/>
<path d="M8.81126 23.7768C9.01224 23.9218 9.25303 23.9998 9.5 23.9998C9.74697 23.9998 9.98776 23.9218 10.1887 23.7768C10.5497 23.5188 19.0343 17.328 18.9999 9.6C18.9999 4.3068 14.738 0 9.5 0C4.262 0 0.000104544 4.3068 0.000104544 9.594C-0.0343326 17.328 8.45026 23.5188 8.81126 23.7768ZM9.5 2.4C13.4294 2.4 16.6249 5.6292 16.6249 9.606C16.6499 14.9316 11.4142 19.7136 9.5 21.282C7.58696 19.7124 2.35014 14.9292 2.37508 9.6C2.37508 5.6292 5.57061 2.4 9.5 2.4Z" fill="#0B9FE9"/>
</g>
<defs>
<clipPath id="clip0_129_1598">
<rect width="19" height="24" fill="white"/>
</clipPath>
</defs>
</svg>
