<svg width="48" height="48" viewBox="0 0 48 48" fill="none" xmlns="http://www.w3.org/2000/svg">
<g clip-path="url(#clip0_129_509)">
<path d="M46 44H10C8.4087 44 6.88258 43.3679 5.75736 42.2426C4.63214 41.1174 4 39.5913 4 38V2C4 1.46957 3.78929 0.960859 3.41421 0.585786C3.03914 0.210714 2.53043 0 2 0C1.46957 0 0.960859 0.210714 0.585786 0.585786C0.210714 0.960859 0 1.46957 0 2L0 38C0.00317572 40.6512 1.05776 43.1929 2.93244 45.0676C4.80712 46.9422 7.34881 47.9968 10 48H46C46.5304 48 47.0391 47.7893 47.4142 47.4142C47.7893 47.0391 48 46.5304 48 46C48 45.4696 47.7893 44.9609 47.4142 44.5858C47.0391 44.2107 46.5304 44 46 44Z" fill="#0B9FE9"/>
<path d="M12 40C12.5304 40 13.0391 39.7893 13.4142 39.4142C13.7893 39.0391 14 38.5304 14 38V24C14 23.4696 13.7893 22.9609 13.4142 22.5858C13.0391 22.2107 12.5304 22 12 22C11.4696 22 10.9609 22.2107 10.5858 22.5858C10.2107 22.9609 10 23.4696 10 24V38C10 38.5304 10.2107 39.0391 10.5858 39.4142C10.9609 39.7893 11.4696 40 12 40Z" fill="#0B9FE9"/>
<path d="M20 20V38C20 38.5304 20.2107 39.0391 20.5858 39.4142C20.9609 39.7893 21.4696 40 22 40C22.5304 40 23.0391 39.7893 23.4142 39.4142C23.7893 39.0391 24 38.5304 24 38V20C24 19.4696 23.7893 18.9609 23.4142 18.5858C23.0391 18.2107 22.5304 18 22 18C21.4696 18 20.9609 18.2107 20.5858 18.5858C20.2107 18.9609 20 19.4696 20 20Z" fill="#0B9FE9"/>
<path d="M30 26V38C30 38.5304 30.2107 39.0391 30.5858 39.4142C30.9609 39.7893 31.4696 40 32 40C32.5304 40 33.0391 39.7893 33.4142 39.4142C33.7893 39.0391 34 38.5304 34 38V26C34 25.4696 33.7893 24.9609 33.4142 24.5858C33.0391 24.2107 32.5304 24 32 24C31.4696 24 30.9609 24.2107 30.5858 24.5858C30.2107 24.9609 30 25.4696 30 26Z" fill="#0B9FE9"/>
<path d="M40 18V38C40 38.5304 40.2107 39.0391 40.5858 39.4142C40.9609 39.7893 41.4696 40 42 40C42.5304 40 43.0391 39.7893 43.4142 39.4142C43.7893 39.0391 44 38.5304 44 38V18C44 17.4696 43.7893 16.9609 43.4142 16.5858C43.0391 16.2107 42.5304 16 42 16C41.4696 16 40.9609 16.2107 40.5858 16.5858C40.2107 16.9609 40 17.4696 40 18Z" fill="#0B9FE9"/>
<path d="M12.0001 18.0001C12.5305 18 13.0391 17.7892 13.4141 17.4141L20.5861 10.2421C20.9673 9.87893 21.4736 9.67637 22.0001 9.67637C22.5266 9.67637 23.0329 9.87893 23.4141 10.2421L27.7581 14.5861C28.8832 15.7109 30.4091 16.3428 32.0001 16.3428C33.591 16.3428 35.1169 15.7109 36.2421 14.5861L47.4141 3.41408C47.7784 3.03688 47.98 2.53167 47.9754 2.00728C47.9709 1.48289 47.7605 0.981261 47.3897 0.610445C47.0189 0.239628 46.5173 0.0292906 45.9929 0.0247338C45.4685 0.020177 44.9633 0.221766 44.5861 0.586082L33.4141 11.7561C33.039 12.131 32.5304 12.3417 32.0001 12.3417C31.4697 12.3417 30.9611 12.131 30.5861 11.7561L26.2421 7.41408C25.1169 6.28926 23.591 5.65736 22.0001 5.65736C20.4091 5.65736 18.8832 6.28926 17.7581 7.41408L10.5861 14.5861C10.3064 14.8658 10.116 15.2221 10.0389 15.61C9.96176 15.9979 10.0014 16.4 10.1527 16.7654C10.304 17.1308 10.5603 17.4431 10.8891 17.6629C11.218 17.8827 11.6046 18 12.0001 18.0001Z" fill="#0B9FE9"/>
</g>
<defs>
<clipPath id="clip0_129_509">
<rect width="48" height="48" fill="white"/>
</clipPath>
</defs>
</svg>
