<svg width="60" height="60" viewBox="0 0 60 60" fill="none" xmlns="http://www.w3.org/2000/svg">
<g clip-path="url(#clip0_129_702)">
<path d="M56.25 22.5H55V20C55 13.1075 49.3925 7.5 42.5 7.5H32.5V2.5C32.5 1.12 31.3825 0 30 0C28.6175 0 27.5 1.12 27.5 2.5V7.5H17.5C10.6075 7.5 5 13.1075 5 20V22.5H3.75C1.6825 22.5 0 24.1825 0 26.25V33.75C0 35.8175 1.6825 37.5 3.75 37.5H5V40C5 46.8925 10.6075 52.5 17.5 52.5H36.7425L46.65 59.105C47.55 59.705 48.5875 60.0075 49.6275 60.0075C50.4975 60.0075 51.3675 59.7975 52.165 59.37C53.9125 58.4325 55 56.62 55 54.635V37.4975H56.25C58.3175 37.4975 60 35.815 60 33.7475V26.2475C60 24.18 58.3175 22.4975 56.25 22.4975V22.5ZM21.25 20C23.32 20 25 21.68 25 23.75C25 25.82 23.32 27.5 21.25 27.5C19.18 27.5 17.5 25.82 17.5 23.75C17.5 21.68 19.18 20 21.25 20ZM41.3275 38.9325C38.735 40.56 34.6625 42.5 30 42.5C25.3375 42.5 21.265 40.56 18.6725 38.9325C17.5025 38.2 17.15 36.655 17.885 35.4875C18.62 34.32 20.1625 33.965 21.33 34.6975C23.3675 35.9775 26.5275 37.5 30.0025 37.5C33.4775 37.5 36.635 35.9775 38.675 34.6975C39.84 33.9625 41.3875 34.3175 42.12 35.4875C42.855 36.6575 42.5 38.2 41.3325 38.9325H41.3275ZM38.75 27.5C36.68 27.5 35 25.82 35 23.75C35 21.68 36.68 20 38.75 20C40.82 20 42.5 21.68 42.5 23.75C42.5 25.82 40.82 27.5 38.75 27.5Z" fill="#252B42"/>
</g>
<defs>
<clipPath id="clip0_129_702">
<rect width="60" height="60" fill="white"/>
</clipPath>
</defs>
</svg>
