<svg width="48" height="48" viewBox="0 0 48 48" fill="none" xmlns="http://www.w3.org/2000/svg">
<path d="M29.992 26.076L34.524 25.636C35.568 28.19 38.074 29.998 41 29.998C44.86 29.998 48 26.858 48 22.998C48 19.138 44.86 15.998 41 15.998C37.6 15.998 34.764 18.436 34.136 21.656L29.22 22.132C28.762 21.044 28.098 20.072 27.306 19.22L30.984 13.668C31.626 13.864 32.294 14 33 14C36.86 14 40 10.86 40 7C40 3.14 36.86 0 33 0C29.14 0 26 3.14 26 7C26 8.702 26.636 10.244 27.648 11.458L24.058 16.88C22.814 16.324 21.448 16 20 16C18.552 16 17.186 16.324 15.942 16.88L12.352 11.458C13.366 10.244 14 8.702 14 7C14 3.14 10.86 0 7 0C3.14 0 0 3.14 0 7C0 10.86 3.14 14 7 14C7.706 14 8.374 13.864 9.016 13.668L12.694 19.22C11.036 21.006 10 23.376 10 26C10 28.258 10.782 30.322 12.05 31.998L9.826 34.606C8.96 34.222 8.008 34 7.002 34C3.142 34 0.002 37.14 0.002 41C0.002 44.86 3.142 48 7.002 48C10.862 48 14.002 44.86 14.002 41C14.002 39.6 13.578 38.3 12.868 37.204L15.056 34.638C16.52 35.48 18.194 36 20.002 36C22.214 36 24.24 35.256 25.898 34.036L30.632 38.134C30.236 39.012 30.002 39.978 30.002 41.002C30.002 44.862 33.142 48.002 37.002 48.002C40.862 48.002 44.002 44.862 44.002 41.002C44.002 37.142 40.862 34.002 37.002 34.002C35.62 34.002 34.338 34.418 33.252 35.112L28.576 31.066C29.448 29.596 29.98 27.904 29.994 26.08L29.992 26.076ZM41 20C42.654 20 44 21.346 44 23C44 24.654 42.654 26 41 26C39.346 26 38 24.654 38 23C38 21.346 39.346 20 41 20ZM33 4C34.654 4 36 5.346 36 7C36 8.654 34.654 10 33 10C31.346 10 30 8.654 30 7C30 5.346 31.346 4 33 4ZM4 7C4 5.346 5.346 4 7 4C8.654 4 10 5.346 10 7C10 8.654 8.654 10 7 10C5.346 10 4 8.654 4 7ZM7 44C5.346 44 4 42.654 4 41C4 39.346 5.346 38 7 38C8.654 38 10 39.346 10 41C10 42.654 8.654 44 7 44ZM20 32C16.692 32 14 29.308 14 26C14 22.692 16.692 20 20 20C23.308 20 26 22.692 26 26C26 29.308 23.308 32 20 32ZM37 38C38.654 38 40 39.346 40 41C40 42.654 38.654 44 37 44C35.346 44 34 42.654 34 41C34 39.346 35.346 38 37 38Z" fill="#0B9FE9"/>
</svg>
