<svg width="153" height="50" viewBox="0 0 153 50" fill="none" xmlns="http://www.w3.org/2000/svg">
<g clip-path="url(#clip0_129_262)">
<g clip-path="url(#clip1_129_262)">
<mask id="mask0_129_262" style="mask-type:luminance" maskUnits="userSpaceOnUse" x="0" y="0" width="153" height="50">
<path d="M152.445 0H0V50H152.445V0Z" fill="white"/>
</mask>
<g mask="url(#mask0_129_262)">
<path d="M58.5408 43.6164C52.8684 39.9562 45.17 39.314 32.7547 42.7642C19.5191 45.8797 15.1062 47.8768 9.31083 43.8677C7.08432 41.8983 6.28608 38.7272 6.88214 34.1597C8.26463 26.7137 12.0007 19.5481 18.6368 11.5997C22.3411 7.46501 25.777 3.91667 30.3142 2.4918C33.7915 1.59794 33.4664 4.33526 33.0456 4.72674C32.6017 4.72674 31.8558 4.79679 31.2794 5.17357C30.8116 5.537 29.5274 6.71048 29.4584 8.28901C29.3589 10.7055 31.8556 10.2025 32.9324 8.87575C34.0931 7.38064 35.8085 4.51754 34.4592 1.84913C33.8936 0.899342 32.9164 0.242928 31.7031 0.0194157C27.5486 -0.218413 23.6794 1.76533 20.1086 3.95848C12.2992 9.39242 6.05208 16.922 2.51725 25.1639C0.479234 30.1367 -1.36383 37.2602 1.39887 43.0579C3.53596 47.0808 7.97289 49.2177 13.2664 48.7708C16.979 48.3801 21.4683 47.1782 24.4877 46.4524C27.5071 45.7256 42.963 40.4038 48.0414 49.666C48.0414 49.666 49.73 46.3824 53.9503 46.3123C57.4199 45.9917 62.4254 47.3184 66.0705 50C64.8561 48.1707 61.4131 45.4746 58.5408 43.6164Z" fill="#737373"/>
<path d="M34.3308 12.5356C31.44 10.6358 25.6299 14.2678 20.9763 20.4977C16.7208 26.0859 14.8832 32.5807 16.883 35.5841C19.8577 39.1181 25.3801 33.9777 27.7285 31.2263L28.0315 30.9047C29.6285 29.1865 30.8624 27.1189 32.0567 25.1351C32.0567 25.1351 33.1543 23.3192 33.2067 23.2352C33.885 23.11 34.7021 22.9143 35.6229 22.6488C35.6098 22.6905 32.1001 28.5995 32.4581 31.5325C32.5696 32.4273 32.4845 35.696 35.6705 36.6876C39.917 37.4005 43.3077 34.1033 46.2991 31.1698C46.2991 31.1698 46.8089 30.6814 47.0971 30.4025C47.0241 30.6951 46.9291 31.0855 46.9291 31.0855C45.6859 35.416 47.3617 36.3246 48.4099 36.6599C51.5779 37.5824 55.3626 32.9722 55.3748 32.9722C55.2766 34.4244 54.9896 35.6257 56.5179 36.5896C57.9604 37.107 59.4203 36.3185 60.5299 35.5781C64.5268 32.7564 67.7468 28.3401 70.3477 24.5226H68.6888C68.6691 24.5226 64.595 30.4374 61.9495 31.723C61.9453 31.723 61.464 31.9706 61.1865 31.7747C60.8431 31.4811 60.9786 30.8711 61.1907 30.439C61.2041 30.4107 71.4052 12.6885 71.4052 12.6885H66.5887C66.5887 12.6885 66.0625 13.5411 66.0197 13.5971C65.9872 13.5691 65.9101 13.4226 65.8565 13.3523C62.8724 9.21765 56.1147 15.5776 51.027 22.9529C49.0683 25.7889 46.5744 28.9821 43.9886 31.2868C43.9886 31.2868 40.1578 34.8042 38.5209 32.2771C37.9226 31.2152 38.1066 29.6629 38.4442 28.6434C40.3499 23.2094 43.6338 18.2778 47.3705 15.3021C48.4255 14.4785 49.5721 14.2403 50.1411 14.5896C50.6833 14.9114 50.7707 15.707 50.4277 16.2519C49.5575 16.2241 48.8601 16.489 48.2933 17.0757C47.1766 18.2492 46.7887 19.3809 47.1436 20.4427C48.8684 22.9011 52.3081 18.0398 52.1417 15.0784C52.0823 14.0166 51.5167 13.0111 50.6728 12.5216C49.4148 11.7677 47.4959 11.963 46.2541 12.5641C44.5917 13.1924 41.9601 15.3853 40.424 17.0898C38.4902 19.2274 35.1738 21.6019 34.1365 21.336C34.4763 20.4276 37.2777 14.6866 34.3308 12.5356ZM57.5522 21.0287C58.4892 19.7298 61.2163 16.2513 61.8811 15.6648C64.1171 13.6944 65.0109 14.5613 65.0882 15.1756C63.0014 18.9191 60.5384 23.2079 58.2228 27.0636C58.2276 27.0498 57.4982 28.167 57.4982 28.167C56.4754 29.7312 55.4456 31.0723 53.7659 32.0081C53.5263 32.0784 53.1315 32.1064 52.8687 31.9102C52.5524 31.7006 52.4276 31.3513 52.4632 30.9879C52.5638 29.787 53.7847 26.1137 57.5522 21.0287ZM31.3497 23.2776C31.3497 23.2776 31.3078 23.4037 31.287 23.445C31.2817 23.445 29.1871 26.867 29.1871 26.867C27.9229 28.5576 26.3445 30.6814 24.3715 31.7006C23.7867 31.8963 22.9784 32.0222 22.5663 31.5057C21.693 30.4579 22.1431 29.0051 22.5088 27.8318L22.6382 27.4126C23.6866 24.5633 25.3502 22.0483 26.9693 19.7155C26.9895 19.7017 27.0349 19.6878 27.0513 19.6878C27.0551 19.7017 27.0615 19.7017 27.0645 19.7298C28.0805 21.6851 29.9857 22.5927 31.4105 23.0125C31.4191 23.0125 31.4282 23.0264 31.4282 23.0545C31.4284 23.0961 31.4052 23.1524 31.3497 23.2776ZM33.3341 19.241C33.325 19.2688 32.4012 21.3919 32.4012 21.3919C32.2676 21.5036 32.0565 21.4479 31.8144 21.3919L31.3998 21.3217C30.0978 20.9168 29.1156 20.0506 28.8128 19.0171C28.3951 17.0055 30.1107 15.427 30.8666 14.8545C31.5918 14.3511 32.7194 14.0859 33.3741 14.603C33.7779 15.0781 33.931 15.6925 33.931 16.3634C33.9312 17.2711 33.6514 18.2908 33.3341 19.241Z" fill="#737373"/>
<path d="M94.2247 25.7219C93.7607 24.7163 92.6581 24.0737 91.4832 24.1433C87.6673 24.4928 83.9355 27.6358 81.9757 32.1474C80.9475 34.4666 80.3863 36.3801 80.0183 39.4253C81.2048 38.0567 83.6245 35.8078 86.371 34.5784C86.371 34.5784 86.7452 31.659 88.6502 29.0607C89.3711 27.9847 90.8147 26.2527 92.4345 26.7135C93.8505 27.1888 93.3533 31.1141 91.4715 34.9128C90.0788 37.707 87.9484 40.5016 85.7931 42.4288C83.8872 44.0493 81.0677 46.0048 78.6008 44.4964C77.047 43.5748 76.2545 41.6467 76.4219 39.1602C77.1644 32.106 80.3701 26.0993 84.9574 19.2545C89.6879 12.8986 94.9024 6.37514 101.927 2.89628C103.36 2.17 104.687 2.00241 105.834 2.44944C105.834 2.44944 99.2396 6.08138 96.0965 12.8007C95.2966 14.5052 94.1848 16.8094 95.3049 18.8491C95.8894 19.9106 96.9288 19.9945 97.7653 19.9386C101.619 19.0443 104.107 15.4405 106.141 12.1441C107.32 9.64367 108.369 7.15715 108.369 4.3912C108.369 4.05602 108.351 3.60919 108.323 3.27363C110.163 2.29617 113.938 4.02796 113.938 4.02796C116.888 5.00619 123.168 9.82575 125.287 10.7473C126.321 9.54609 128.019 7.73034 128.975 6.82216L127.59 5.96991C125.374 4.6149 123.032 3.32955 120.726 2.05853C115.49 -0.804763 111.228 0.20076 109.058 0.983154C108.206 1.29026 107.427 1.55577 107.427 1.55577C105.817 -0.204274 103.177 -0.037069 101.231 0.438206C94.2355 2.44963 87.7397 7.3526 80.7758 15.86C75.6559 22.5234 72.4801 28.2788 70.7874 33.964C69.4826 37.7912 69.0861 43.4208 72.2706 46.7596C74.9783 49.5944 78.5686 48.9804 81.1039 47.9609C86.5972 45.2509 91.5339 39.4115 93.9944 32.6924C94.5881 30.6951 95.2467 27.8734 94.2247 25.7219ZM106.856 4.67083C106.129 13.0244 99.6462 17.9279 98.0422 18.3185C97.0702 18.5138 95.4113 18.081 96.8922 14.5753C99.0725 9.85325 102.795 5.8445 106.79 3.7909C106.887 4.1402 106.885 4.36314 106.856 4.67083Z" fill="#737373"/>
<path d="M145.31 5.73219C141.824 7.71612 138.209 9.0009 133.833 8.55406C132.62 9.9234 131.439 11.3341 130.351 12.7866C136.493 14.3512 143.003 10.873 146.635 7.56266C150.476 4.2239 152.445 0.0195312 152.445 0.0195312C152.445 0.0195312 149.567 3.31591 145.31 5.73219Z" fill="#737373"/>
<path d="M76.8295 16.8877L79.4107 12.6885H74.8365L72.2564 16.8877H76.8295Z" fill="#737373"/>
<path d="M133.814 44.0051C133.323 44.3403 132.632 44.0826 132.89 43.3146C133.533 41.3589 136.092 37.3734 136.092 37.3734L143.218 24.7136H138.337C138.105 25.0953 137.609 25.972 137.609 25.972C137.383 25.5952 136.707 24.7572 136.429 24.5763C135.237 23.8214 133.488 24.1783 132.28 24.8626C127.032 27.9362 123.204 34.0089 120.184 38.7446C120.184 38.7446 117.005 44.009 115.241 44.4005C113.864 44.5123 114.006 42.6536 114.065 42.2205C114.598 39.0909 115.834 36.1157 117.081 33.4196C119.615 31.6596 122.508 29.3548 125.137 26.8266C130.842 21.3641 135.651 15.1758 136.355 13.7929C136.355 13.7929 135.594 13.9467 134.695 13.9745C130.306 20.1068 121.325 29.0195 118.602 30.3462C119.808 27.4401 127.601 13.5692 134.233 6.93407L135.277 5.92798C136.89 4.34946 138.562 2.72913 139.865 2.46363C140.003 2.4497 140.18 2.46363 140.333 2.78544C140.392 4.01447 139.935 4.92265 139.41 5.95623L138.676 7.46509C138.676 7.46509 139.716 7.26944 140.4 7.04536C141.192 5.55139 142.07 3.87456 141.747 1.87746C141.639 1.23478 141.174 0.745957 140.567 0.634106C138.589 0.256939 136.433 1.72323 134.698 2.91103L134.628 2.95265C125.709 9.95123 118.179 20.037 111.595 33.8106C111.118 34.1732 109.274 34.6067 108.961 34.397C109.611 33.0562 110.429 31.2538 110.839 29.2981C110.91 28.7393 110.976 28.1668 110.976 27.6081C110.976 26.4058 110.688 25.2747 109.613 24.4927C108.352 23.864 106.794 24.1576 105.743 24.6322C101.037 26.588 97.5192 31.4216 94.9814 35.4023C93.616 37.9314 92.2548 40.6401 91.8782 43.7417C91.6121 46.172 92.1526 47.7366 93.5321 48.5191C94.9506 49.245 96.7367 48.4905 97.4377 48.1276C102.206 45.6132 105.538 40.5707 108.164 35.9606C108.267 35.9468 109.702 35.9052 110.786 35.6254C110.8 35.6254 110.806 35.6254 110.83 35.6401C110.769 35.8487 110.208 37.5256 110.208 37.5256C108.544 42.4144 107.774 45.7394 109.346 47.7086C111.593 50.4887 115.311 47.6113 118.337 43.8111C117.688 48.3649 120.044 49.0776 121.84 48.7287C123.903 48.1702 126.203 45.9626 127.269 44.8314C126.927 46.1582 127.02 48.5332 128.897 48.7705C130.183 49.0087 131.146 48.3078 132.259 47.707C136.256 45.5276 141.039 38.2654 142.28 36.1658H140.652C138.887 38.8382 136.641 42.3421 133.814 44.0051ZM97.9483 43.5188C97.6947 43.1416 97.6107 42.7291 97.6024 42.2833C97.5541 39.5442 100.496 34.639 102.572 31.9667C102.577 31.9667 102.577 31.9667 102.577 31.9667C103.447 33.8755 105.418 35.1024 106.608 35.6195C105.13 38.9165 100.063 45.9772 97.9483 43.5188ZM107.442 34.1456C107.3 34.2439 104.816 33.4054 104.335 31.1006C103.928 29.1162 105.292 27.5658 106.612 26.7841C107.178 26.337 108.032 26.1836 108.657 26.4062C109.239 26.7979 109.396 27.4969 109.396 28.2501C109.396 28.712 109.335 29.1865 109.281 29.6194C109.281 29.6194 109.271 29.7036 109.269 29.7175C108.855 31.2676 108.222 32.7904 107.442 34.1456ZM127.373 42.6389C127.371 42.6389 126.902 43.0578 126.902 43.0578C126.231 43.6581 125.541 44.3008 124.708 43.9794C124.479 43.8956 124.317 43.5886 124.278 43.3505C124.24 41.6322 125.013 40.0401 125.762 38.4899L125.954 38.0845C128.108 34.4806 130.613 30.234 134.292 27.2869C134.912 26.8389 135.585 26.4626 136.294 26.7561C136.458 26.9094 136.648 27.1751 136.648 27.4401C136.648 27.5244 136.573 27.7476 136.53 27.8171C135.503 29.4802 134.524 31.2261 133.573 32.9022C131.713 36.2131 129.785 39.6351 127.373 42.6389Z" fill="#737373"/>
</g>
</g>
</g>
<defs>
<clipPath id="clip0_129_262">
<rect width="153" height="50" fill="white"/>
</clipPath>
<clipPath id="clip1_129_262">
<rect width="153" height="50" fill="white"/>
</clipPath>
</defs>
</svg>
