<svg width="48" height="48" viewBox="0 0 48 48" fill="none" xmlns="http://www.w3.org/2000/svg">
<path d="M18 11C18 12.656 16.656 14 15 14C13.344 14 12 12.656 12 11C12 9.344 13.344 8 15 8C16.656 8 18 9.344 18 11ZM28 13C28 17.478 25.73 21.568 22 23.946V39.246C22 41.384 21.166 43.394 19.656 44.904L17.664 46.896C16.93 47.63 15.964 47.998 15 47.998C14.036 47.998 13.072 47.63 12.336 46.898L10.342 44.904C8.83 43.394 7.998 41.384 7.998 39.246V37.414C7.998 36.614 8.31001 35.86 8.87601 35.292L10.918 33.25L9.29 31.622C8.12 30.452 8.12 28.55 9.29 27.38L10.918 25.752L10.268 25.104C4.364 22.798 1.008 16.676 2.262 10.358C3.252 5.374 7.25201 1.328 12.218 0.292C16.138 -0.53 20.14 0.426 23.194 2.908C26.248 5.39 28 9.068 28 13ZM24 13C24 10.278 22.786 7.73 20.67 6.01C18.522 4.266 15.812 3.628 13.036 4.206C9.62001 4.92 6.868 7.706 6.186 11.138C5.292 15.638 7.754 19.994 12.036 21.49C12.32 21.59 12.578 21.752 12.79 21.964L14.456 23.63C15.626 24.8 15.626 26.702 14.456 27.872L12.828 29.5L14.456 31.128C15.626 32.298 15.626 34.2 14.456 35.37L11.998 37.828V39.246C11.998 40.3 12.424 41.332 13.17 42.076L14.998 43.904L16.826 42.076C17.572 41.332 17.998 40.3 17.998 39.246V22.788C17.998 22.038 18.418 21.348 19.086 21.006C22.116 19.458 23.998 16.388 23.998 12.998L24 13ZM34 16H38C41.308 16 44 13.308 44 10V7.446C45.19 6.754 46 5.478 46 4C46 1.79 44.21 0 42 0C39.79 0 38 1.79 38 4C38 5.476 38.81 6.752 40 7.446V10C40 11.104 39.102 12 38 12H34C32.896 12 32 12.894 32 14C32 15.106 32.896 16 34 16ZM44 40.554V38C44 34.692 41.308 32 38 32H28C26.896 32 26 32.894 26 34C26 35.106 26.896 36 28 36H38C39.102 36 40 36.896 40 38V40.554C38.81 41.246 38 42.522 38 44C38 46.21 39.79 48 42 48C44.21 48 46 46.21 46 44C46 42.524 45.19 41.248 44 40.554ZM42 20C40.524 20 39.248 20.81 38.554 22H30C28.896 22 28 22.894 28 24C28 25.106 28.896 26 30 26H38.554C39.246 27.19 40.522 28 42 28C44.21 28 46 26.21 46 24C46 21.79 44.21 20 42 20Z" fill="#0B9FE9"/>
</svg>
