<svg width="48" height="48" viewBox="0 0 48 48" fill="none" xmlns="http://www.w3.org/2000/svg">
<g clip-path="url(#clip0_129_472)">
<path d="M22 5C22 2.238 24.238 0 27 0C29.762 0 32 2.238 32 5C32 7.762 29.762 10 27 10C24.238 10 22 7.762 22 5ZM48 24.474V27.662C48 30.19 46.112 32.326 43.606 32.628C38.392 33.258 33.23 33.69 28.786 33.882L29.18 34.128C30.946 35.23 32 37.132 32 39.216V46C32 47.104 31.106 48 30 48C28.894 48 28 47.104 28 46V39.216C28 38.522 27.648 37.888 27.06 37.52L21.358 33.956C16.482 33.826 10.472 33.36 4.39405 32.626C1.80605 32.312 -0.00195312 30.112 -0.00195312 27.272V24.468C-0.00195312 23.316 0.494047 22.22 1.35605 21.462C2.21805 20.706 3.36605 20.354 4.49805 20.504C8.53405 21.028 12.492 21.422 16.096 21.676L18.426 15.996H14.974C12.304 15.996 9.99405 14.278 9.22605 11.72L7.08205 4.57C6.76405 3.512 7.36605 2.398 8.42405 2.08C9.48405 1.764 10.598 2.364 10.914 3.422L13.058 10.572C13.314 11.424 14.084 11.996 14.974 11.996H36.02C36.91 11.996 37.68 11.422 37.936 10.57L40.08 3.422C40.396 2.364 41.508 1.758 42.57 2.08C43.628 2.398 44.228 3.512 43.912 4.57L41.768 11.72C41 14.278 38.69 15.996 36.02 15.996H31.748L29.306 21.836C33.548 21.612 38.464 21.156 43.494 20.504C44.636 20.354 45.776 20.706 46.634 21.462C47.5 22.222 47.996 23.32 47.996 24.472L48 24.474ZM20.324 21.916C21.632 21.968 22.872 22 24 22C24.29 22 24.608 21.992 24.912 21.988L27.416 16H22.754L20.328 21.916H20.324ZM44 24.474C39.712 25.048 30.638 26.018 24 26C16.822 26 8.37805 25.044 3.98605 24.474L4.00005 27.274C4.00005 27.574 4.06405 28.558 4.87605 28.656C11.946 29.51 18.918 29.998 24 29.998C29.082 29.998 36.052 29.508 43.124 28.656C43.632 28.594 44 28.176 44 27.66V24.472V24.474ZM18.828 37.736C17.814 37.302 16.636 37.772 16.202 38.786C15.886 39.524 15.164 39.998 14.364 39.998H8.00205C6.89805 39.998 6.00205 40.894 6.00205 41.998C6.00205 43.102 6.89805 43.998 8.00205 43.998H14.364C16.768 43.998 18.932 42.57 19.878 40.362C20.314 39.346 19.842 38.17 18.828 37.736Z" fill="#0B9FE9"/>
</g>
<defs>
<clipPath id="clip0_129_472">
<rect width="48" height="48" fill="white"/>
</clipPath>
</defs>
</svg>
