<svg width="48" height="48" viewBox="0 0 48 48" fill="none" xmlns="http://www.w3.org/2000/svg">
<g clip-path="url(#clip0_129_120)">
<path d="M40 8H30C30 5.87827 29.1571 3.84344 27.6569 2.34315C26.1566 0.842855 24.1217 0 22 0L8 0C5.87827 0 3.84344 0.842855 2.34315 2.34315C0.842855 3.84344 0 5.87827 0 8L0 46C0 46.5304 0.210714 47.0391 0.585786 47.4142C0.960859 47.7893 1.46957 48 2 48C2.53043 48 3.03914 47.7893 3.41421 47.4142C3.78929 47.0391 4 46.5304 4 46V26H20C20 28.1217 20.8429 30.1566 22.3431 31.6569C23.8434 33.1571 25.8783 34 28 34H40C42.1217 34 44.1566 33.1571 45.6569 31.6569C47.1571 30.1566 48 28.1217 48 26V16C48 13.8783 47.1571 11.8434 45.6569 10.3431C44.1566 8.84285 42.1217 8 40 8ZM4 22V8C4 6.93913 4.42143 5.92172 5.17157 5.17157C5.92172 4.42143 6.93913 4 8 4H22C23.0609 4 24.0783 4.42143 24.8284 5.17157C25.5786 5.92172 26 6.93913 26 8V18C26 19.0609 25.5786 20.0783 24.8284 20.8284C24.0783 21.5786 23.0609 22 22 22H4ZM44 26C44 27.0609 43.5786 28.0783 42.8284 28.8284C42.0783 29.5786 41.0609 30 40 30H28C26.9391 30 25.9217 29.5786 25.1716 28.8284C24.4214 28.0783 24 27.0609 24 26V25.716C25.7123 25.2739 27.2298 24.2769 28.3154 22.8809C29.401 21.4848 29.9934 19.7684 30 18V12H40C41.0609 12 42.0783 12.4214 42.8284 13.1716C43.5786 13.9217 44 14.9391 44 16V26Z" fill="#0B9FE9"/>
</g>
<defs>
<clipPath id="clip0_129_120">
<rect width="48" height="48" fill="white"/>
</clipPath>
</defs>
</svg>
