<svg width="48" height="48" viewBox="0 0 48 48" fill="none" xmlns="http://www.w3.org/2000/svg">
<g clip-path="url(#clip0_129_174)">
<path d="M28 12C28 10.896 28.896 10 30 10H38C39.104 10 40 10.896 40 12C40 13.104 39.104 14 38 14H30C28.896 14 28 13.104 28 12ZM21 15C21 12.238 18.762 10 16 10C13.238 10 11 12.238 11 15C11 17.762 13.238 20 16 20C18.762 20 21 17.762 21 15ZM38 0H10C4.486 0 0 4.486 0 10V30C0 35.514 4.486 40 10 40H22C23.104 40 24 39.104 24 38C24 36.896 23.104 36 22 36H10C6.692 36 4 33.308 4 30V10C4 6.692 6.692 4 10 4H38C41.308 4 44 6.692 44 10V19C44 20.104 44.896 21 46 21C47.104 21 48 20.104 48 19V10C48 4.486 43.514 0 38 0ZM8.126 27.298C7.738 28.334 8.262 29.486 9.296 29.874C10.33 30.262 11.484 29.738 11.872 28.704C12.478 27.088 14.136 26.002 15.998 26.002C17.86 26.002 19.52 27.088 20.124 28.704C20.51 29.748 21.692 30.26 22.7 29.874C23.734 29.486 24.258 28.334 23.87 27.298C22.682 24.13 19.518 22 15.996 22C12.474 22 9.31 24.128 8.122 27.298H8.126ZM48 30.014V36.08C48 43.384 41.204 46.688 39.12 47.526C38.776 47.672 38.486 47.82 38.002 47.82C37.518 47.82 37.13 47.634 36.75 47.43C34.698 46.404 28 42.554 28 36.08V30.014C28 27.854 29.376 25.948 31.426 25.268L37.372 23.298C37.78 23.164 38.222 23.164 38.63 23.298L44.574 25.268C46.624 25.948 48 27.854 48 30.014ZM44 30.014C44 29.582 43.724 29.2 43.314 29.064L38 27.302L32.684 29.064C32.274 29.2 32 29.582 32 30.014V36.08C32 39.938 36.412 42.704 38.09 43.618C39.936 42.786 44 40.46 44 36.08V30.014ZM30 22H34C35.104 22 36 21.104 36 20C36 18.896 35.104 18 34 18H30C28.896 18 28 18.896 28 20C28 21.104 28.896 22 30 22Z" fill="#0B9FE9"/>
</g>
<defs>
<clipPath id="clip0_129_174">
<rect width="48" height="48" fill="white"/>
</clipPath>
</defs>
</svg>
