<svg width="148" height="148" viewBox="0 0 148 148" fill="none" xmlns="http://www.w3.org/2000/svg">
<path d="M135.173 34.6569C134.711 33.5307 133.925 32.5667 132.915 31.8863C131.906 31.2059 130.717 30.8396 129.5 30.8335H117.167V18.5002C117.161 17.2828 116.794 16.0943 116.114 15.0847C115.433 14.0751 114.469 13.2895 113.343 12.8269C112.22 12.3546 110.983 12.2256 109.786 12.4561C108.59 12.6866 107.489 13.2662 106.622 14.1219L88.1216 32.6219C87.5501 33.1981 87.0979 33.8815 86.791 34.6328C86.4841 35.3841 86.3286 36.1886 86.3333 37.0002V52.9719L72.7049 66.5385C72.127 67.1118 71.6682 67.7938 71.3551 68.5453C71.042 69.2968 70.8809 70.1028 70.8809 70.9169C70.8809 71.7309 71.042 72.537 71.3551 73.2884C71.6682 74.0399 72.127 74.7219 72.7049 75.2952C73.2782 75.8732 73.9603 76.332 74.7117 76.645C75.4632 76.9581 76.2692 77.1193 77.0833 77.1193C77.8974 77.1193 78.7034 76.9581 79.4548 76.645C80.2063 76.332 80.8883 75.8732 81.4616 75.2952L95.0283 61.6669H111C111.812 61.6716 112.616 61.516 113.367 61.2091C114.119 60.9022 114.802 60.4501 115.378 59.8785L133.878 41.3785C134.734 40.5114 135.314 39.4102 135.544 38.2139C135.775 37.0176 135.646 35.7799 135.173 34.6569Z" fill="#2CA9BC"/>
<path fill-rule="evenodd" clip-rule="evenodd" d="M30.395 117.605C41.9597 129.17 57.6449 135.667 73.9999 135.667C90.3549 135.667 106.04 129.17 117.605 117.605C129.17 106.04 135.667 90.3552 135.667 74.0002V71.4102C135.597 70.5991 135.367 69.8099 134.991 69.088C134.615 68.3662 134.1 67.7259 133.475 67.2042C132.85 66.6826 132.128 66.2897 131.35 66.0485C130.573 65.8072 129.755 65.7222 128.945 65.7985C128.134 65.8682 127.345 66.0977 126.623 66.474C125.901 66.8502 125.261 67.3656 124.739 67.9905C124.217 68.6153 123.825 69.3373 123.583 70.1148C123.342 70.8922 123.257 71.7097 123.333 72.5202C123.364 73.013 123.364 73.5073 123.333 74.0002C123.333 83.7574 120.44 93.2955 115.019 101.408C109.598 109.521 101.893 115.844 92.879 119.578C83.8645 123.312 73.9452 124.289 64.3755 122.386C54.8057 120.482 46.0154 115.783 39.116 108.884C32.2166 101.985 27.5181 93.1943 25.6145 83.6246C23.711 74.0549 24.6879 64.1356 28.4219 55.1211C32.1558 46.1066 38.479 38.4018 46.5918 32.981C54.7046 27.5602 64.2427 24.6668 73.9999 24.6668H75.4799C76.2897 24.7397 77.106 24.6524 77.882 24.4098C78.6581 24.1672 79.3788 23.7742 80.003 23.2531C80.6271 22.732 81.1425 22.0931 81.5198 21.3728C81.897 20.6525 82.1287 19.865 82.2016 19.0552C82.2745 18.2453 82.1871 17.4291 81.9446 16.653C81.702 15.877 81.3089 15.1563 80.7878 14.5321C80.2668 13.908 79.6278 13.3925 78.9075 13.0153C78.1873 12.6381 77.3997 12.4064 76.5899 12.3335H73.9999C57.6449 12.3335 41.9597 18.8305 30.395 30.3952C18.8303 41.96 12.3333 57.6451 12.3333 74.0002C12.3333 90.3552 18.8303 106.04 30.395 117.605Z" fill="#273879"/>
<path d="M109.326 76.6784C110.251 78.0662 110.587 79.7647 110.26 81.4002V81.1535C108.921 87.7018 105.834 93.7653 101.326 98.6999C96.8181 103.634 91.0576 107.256 84.6566 109.179C78.2556 111.102 71.4531 111.256 64.9719 109.623C58.4906 107.991 52.5726 104.633 47.8465 99.907C43.1204 95.1808 39.7627 89.2628 38.1301 82.7815C36.4976 76.3003 36.6511 69.4978 38.5744 63.0968C40.4978 56.6958 44.119 50.9353 49.0536 46.4272C53.9881 41.9192 60.0516 38.832 66.5999 37.4935C68.2354 37.1664 69.9339 37.5024 71.3216 38.4276C72.7094 39.3528 73.6728 40.7913 73.9999 42.4268C74.327 44.0623 73.991 45.7608 73.0658 47.1486C72.1407 48.5363 70.7021 49.4997 69.0666 49.8268C64.6787 50.6752 60.6038 52.6998 57.2771 55.6842C53.9505 58.6687 51.4972 62.5008 50.1793 66.7713C48.8615 71.0417 48.7286 75.5899 49.7948 79.93C50.8611 84.2701 53.0865 88.239 56.2332 91.4125C59.3798 94.5861 63.3296 96.8452 67.6605 97.9483C71.9913 99.0515 76.5405 98.9573 80.822 97.6758C85.1035 96.3944 88.9564 93.9738 91.969 90.6727C94.9817 87.3716 97.0409 83.314 97.9266 78.9335C98.2537 77.298 99.2171 75.8594 100.605 74.9342C101.993 74.0091 103.691 73.6731 105.327 74.0002C106.962 74.3273 108.401 75.2907 109.326 76.6784Z" fill="#A43333"/>
</svg>
