<svg width="48" height="48" viewBox="0 0 48 48" fill="none" xmlns="http://www.w3.org/2000/svg">
<g clip-path="url(#clip0_129_157)">
<path d="M2.00201 21.966C2.12601 21.988 2.24601 22 2.36601 22C3.31401 22 4.15601 21.326 4.33001 20.36C4.65401 18.598 5.21601 16.902 5.99601 15.296C6.91001 15.734 7.92001 16 9.00001 16C12.86 16 16 12.86 16 9.00001C16 7.92001 15.734 6.90801 15.294 5.99401C16.9 5.21601 18.598 4.65201 20.36 4.32801C21.446 4.12801 22.164 3.08601 21.966 2.00001C21.766 0.916014 20.746 0.194014 19.638 0.394014C17.122 0.856014 14.72 1.73001 12.478 2.96201C11.448 2.36601 10.27 2.00001 8.99801 2.00001C5.13801 2.00001 1.99801 5.14001 1.99801 9.00001C1.99801 10.272 2.36401 11.45 2.96001 12.48C1.73001 14.722 0.856014 17.122 0.394014 19.64C0.194014 20.726 0.914014 21.768 2.00001 21.968L2.00201 21.966ZM9.00001 6.00001C10.654 6.00001 12 7.34601 12 9.00001C12 10.654 10.654 12 9.00001 12C7.34601 12 6.00001 10.654 6.00001 9.00001C6.00001 7.34601 7.34601 6.00001 9.00001 6.00001ZM27.656 4.29601C29.486 4.61401 31.242 5.19001 32.906 5.99601C32.468 6.91001 32.202 7.92001 32.202 8.99801C32.202 12.858 35.342 15.998 39.202 15.998C40.28 15.998 41.292 15.732 42.206 15.294C42.984 16.9 43.55 18.594 43.872 20.36C44.05 21.324 44.89 21.998 45.836 21.998C45.956 21.998 46.078 21.988 46.2 21.964C47.286 21.764 48.004 20.722 47.806 19.636C47.342 17.116 46.47 14.714 45.24 12.476C45.836 11.448 46.202 10.27 46.202 8.99801C46.202 5.13801 43.062 1.99801 39.202 1.99801C37.93 1.99801 36.75 2.36601 35.722 2.96201C33.414 1.69601 30.94 0.806014 28.344 0.354014C27.242 0.168014 26.22 0.894014 26.03 1.98201C25.84 3.07001 26.57 4.10601 27.656 4.29601ZM42.202 9.00001C42.202 10.654 40.856 12 39.202 12C37.548 12 36.202 10.654 36.202 9.00001C36.202 7.34601 37.548 6.00001 39.202 6.00001C40.856 6.00001 42.202 7.34601 42.202 9.00001ZM20.362 43.67C18.598 43.346 16.902 42.784 15.296 42.004C15.734 41.09 16.002 40.078 16.002 38.998C16.002 35.138 12.862 31.998 9.00201 31.998C7.92201 31.998 6.91201 32.264 5.99801 32.702C5.21801 31.096 4.65601 29.4 4.33201 27.638C4.13401 26.552 3.11001 25.83 2.00401 26.032C0.918014 26.232 0.200014 27.274 0.398014 28.36C0.860014 30.878 1.73401 33.278 2.96401 35.52C2.36801 36.55 2.00201 37.728 2.00201 39C2.00201 42.86 5.14201 46 9.00201 46C10.274 46 11.452 45.634 12.482 45.038C14.724 46.268 17.126 47.144 19.642 47.606C19.766 47.628 19.886 47.64 20.006 47.64C20.954 47.64 21.794 46.966 21.97 46.002C22.17 44.916 21.45 43.874 20.364 43.674L20.362 43.67ZM6.00001 39C6.00001 37.346 7.34601 36 9.00001 36C10.654 36 12 37.346 12 39C12 40.654 10.654 42 9.00001 42C7.34601 42 6.00001 40.654 6.00001 39ZM46.202 26.034C45.116 25.832 44.076 26.554 43.874 27.64C43.55 29.404 42.986 31.1 42.208 32.706C41.294 32.268 40.284 32.002 39.204 32.002C35.344 32.002 32.204 35.142 32.204 39.002C32.204 40.08 32.47 41.092 32.908 42.004C31.244 42.81 29.486 43.386 27.658 43.704C26.57 43.894 25.842 44.93 26.032 46.018C26.202 46.99 27.046 47.676 28 47.676C28.114 47.676 28.228 47.666 28.346 47.646C30.942 47.194 33.416 46.304 35.724 45.038C36.754 45.634 37.932 46.002 39.204 46.002C43.064 46.002 46.204 42.862 46.204 39.002C46.204 37.73 45.838 36.554 45.242 35.524C46.472 33.284 47.344 30.884 47.808 28.364C48.008 27.278 47.288 26.234 46.202 26.034ZM39.204 42C37.55 42 36.204 40.654 36.204 39C36.204 37.346 37.55 36 39.204 36C40.858 36 42.204 37.346 42.204 39C42.204 40.654 40.858 42 39.204 42ZM24 36V37.986C24 39.152 22.624 39.772 21.75 39.002L17.73 35.456C16.756 34.616 16.756 33.146 17.73 32.306L21.75 28.76C22.624 27.99 24 28.61 24 29.776V32C28.412 32 32 28.412 32 24C32 22.886 31.776 21.81 31.336 20.8C30.892 19.788 31.356 18.608 32.368 18.166C33.384 17.724 34.562 18.188 35 19.198C35.664 20.716 36 22.33 36 23.998C36 30.616 30.618 36 24 36ZM24 12V10.014C24 8.84801 25.374 8.22801 26.25 8.99801L30.27 12.544C31.244 13.384 31.244 14.854 30.27 15.694L26.25 19.24C25.376 20.01 24 19.39 24 18.224V16.002C19.588 16.002 16 19.59 16 24.002C16 25.116 16.224 26.192 16.664 27.202C17.108 28.214 16.644 29.394 15.632 29.836C15.372 29.95 15.098 30.004 14.834 30.004C14.062 30.004 13.328 29.556 13 28.804C12.336 27.286 12 25.672 12 24.004C12 17.386 17.382 12.004 24 12.004V12Z" fill="#0B9FE9"/>
</g>
<defs>
<clipPath id="clip0_129_157">
<rect width="48" height="48" fill="white"/>
</clipPath>
</defs>
</svg>
