<svg width="48" height="48" viewBox="0 0 48 48" fill="none" xmlns="http://www.w3.org/2000/svg">
<path d="M9.37502e-05 5.998C9.37502e-05 4.894 0.896094 3.998 2.00009 3.998H2.69609C4.54809 3.998 6.40409 3.56 8.06209 2.732L11.4261 1.05C12.8041 0.362 14.3441 0 15.8801 0C18.4421 0 20.8241 0.922 22.6601 2.596L24.0601 3.872L25.2961 2.708C28.2661 -0.0900002 32.9141 -0.778 36.5741 1.05L39.9381 2.732C41.5961 3.562 43.4521 3.998 45.3041 3.998H46.0001C47.1041 3.998 48.0001 4.894 48.0001 5.998C48.0001 7.102 47.1041 7.998 46.0001 7.998H45.3041C42.8341 7.998 40.3601 7.414 38.1481 6.31L34.7841 4.628C32.5961 3.536 29.8121 3.946 28.0361 5.618L18.6261 14.476C17.9101 15.194 17.7421 16.384 18.2901 17.146C18.6481 17.644 19.1741 17.944 19.7681 17.992C20.3521 18.048 20.9301 17.83 21.3441 17.412L29.6921 9.422C30.4901 8.66 31.7561 8.686 32.5201 9.484C33.2841 10.282 33.2561 11.548 32.4581 12.312L28.9241 15.694L31.1961 17.398C32.0801 18.06 32.2581 19.314 31.5961 20.198C31.2041 20.722 30.6021 20.998 29.9941 20.998C29.5781 20.998 29.1561 20.868 28.7961 20.598L25.9961 18.498L24.1421 20.272C23.0401 21.374 21.5181 21.998 19.9341 21.998C19.7721 21.998 19.6101 21.992 19.4461 21.978C17.6901 21.836 16.0841 20.926 15.0441 19.48C13.3541 17.132 13.6961 13.746 15.8401 11.602L21.1341 6.618L19.9621 5.55C18.1261 3.878 15.2641 3.596 13.2101 4.626L9.84809 6.308C7.63809 7.412 5.16409 7.996 2.69209 7.996H1.99609C0.892094 7.996 -0.00390625 7.1 -0.00390625 5.996L9.37502e-05 5.998ZM48.0001 35.998C48.0001 42.616 42.6181 47.998 36.0001 47.998C29.3821 47.998 24.0001 42.616 24.0001 35.998C24.0001 29.38 29.3821 23.998 36.0001 23.998C42.6181 23.998 48.0001 29.38 48.0001 35.998ZM44.0001 35.998C44.0001 31.586 40.4121 27.998 36.0001 27.998C31.5881 27.998 28.0001 31.586 28.0001 35.998C28.0001 40.41 31.5881 43.998 36.0001 43.998C40.4121 43.998 44.0001 40.41 44.0001 35.998ZM10.4001 28.798C7.99209 26.992 5.01009 25.998 2.00009 25.998C0.896094 25.998 9.37502e-05 26.892 9.37502e-05 27.998C9.37502e-05 29.104 0.896094 29.998 2.00009 29.998C4.15009 29.998 6.28209 30.708 8.00009 31.998L16.8001 38.598C17.1601 38.868 17.5821 38.998 17.9981 38.998C18.6061 38.998 19.2061 38.722 19.6001 38.198C20.2641 37.316 20.0841 36.062 19.2001 35.4L10.4001 28.8V28.798ZM38.6141 32.554L35.0821 35.944C35.0121 36.014 34.9021 36.014 34.8321 35.944L33.0361 34.186C32.2461 33.414 30.9841 33.426 30.2061 34.218C29.4341 35.008 29.4481 36.272 30.2361 37.046L32.0321 38.804C32.8421 39.596 33.9041 39.992 34.9641 39.992C36.0241 39.992 37.0761 39.598 37.8721 38.812L41.3841 35.44C42.1801 34.674 42.2081 33.408 41.4421 32.612C40.6781 31.812 39.4121 31.79 38.6141 32.554Z" fill="#0B9FE9"/>
</svg>
