<svg width="44" height="44" viewBox="0 0 44 44" fill="none" xmlns="http://www.w3.org/2000/svg">
<path d="M0.0638929 11.344C0.759893 8.998 2.60189 8 5.99989 8C8.00789 8 9.45989 8.36 10.4659 9.128C8.05989 10.308 6.87589 12.224 6.30989 13.982C4.44989 14.05 2.64789 13.822 1.29389 13.436C0.371893 13.172 -0.198107 12.23 0.0638929 11.344ZM25.6899 13.982C27.5499 14.05 29.3519 13.822 30.7059 13.438C31.6279 13.174 32.1979 12.23 31.9359 11.344C31.2399 8.998 29.3979 8 25.9999 8C23.9919 8 22.5399 8.36 21.5339 9.128C23.9379 10.308 25.1219 12.222 25.6899 13.982ZM42.8859 27.48C35.0779 38.442 25.3579 44 13.9999 44C7.87389 44 2.81989 43.004 2.60789 42.96C1.84989 42.808 1.24789 42.234 1.06189 41.484C1.01789 41.31 0.00189308 37.196 0.00189308 32.998C0.00189308 28.8 1.01789 24.686 1.06189 24.512C1.24989 23.758 1.85589 23.182 2.61989 23.034C2.83789 22.992 8.03189 21.998 13.9999 21.998C19.0419 21.998 22.6379 23.062 22.7899 23.108C24.8399 23.724 26.3319 25.372 26.7739 27.394C29.0059 25.606 31.1239 23.312 33.1139 20.518C34.9339 17.852 38.8879 17.182 41.4819 19.112C44.1499 20.926 44.8099 24.892 42.8859 27.48ZM39.9719 23.668C39.8839 23.142 39.5959 22.682 39.1599 22.372C38.3019 21.73 36.9759 21.948 36.3699 22.84C30.6479 30.874 23.8539 35.298 16.1779 35.992C15.0979 36.08 14.1059 35.282 14.0059 34.18C13.9059 33.08 14.7179 32.108 15.8179 32.008C17.7719 31.832 19.6619 31.34 21.4999 30.582C22.4499 30.19 22.9179 29.568 22.9059 28.652C22.9059 27.868 22.3819 27.166 21.6339 26.94C21.6059 26.932 18.4179 26 13.9979 26C10.1079 26 6.50989 26.462 4.66789 26.746C4.38789 28.172 3.99789 30.606 3.99789 33C3.99789 35.394 4.38789 37.836 4.66789 39.258C6.48189 39.542 10.0319 40 13.9979 40C23.9879 40 32.6119 35.006 39.6259 25.16C39.9359 24.724 40.0599 24.196 39.9719 23.668ZM15.9999 10C18.1419 10 18.9999 9.142 18.9999 7C18.9999 4.858 18.1419 4 15.9999 4C13.8579 4 12.9999 4.858 12.9999 7C12.9999 9.142 13.8579 10 15.9999 10ZM25.9999 6C28.1419 6 28.9999 5.142 28.9999 3C28.9999 0.858 28.1419 0 25.9999 0C23.8579 0 22.9999 0.858 22.9999 3C22.9999 5.142 23.8579 6 25.9999 6ZM5.99989 6C8.14189 6 8.99989 5.142 8.99989 3C8.99989 0.858 8.14189 0 5.99989 0C3.85789 0 2.99989 0.858 2.99989 3C2.99989 5.142 3.85789 6 5.99989 6ZM11.2939 17.438C12.6039 17.814 14.1579 18 15.9999 18C17.8419 18 19.3959 17.814 20.7059 17.438C21.6279 17.174 22.1979 16.23 21.9359 15.344C21.2399 12.998 19.3979 12 15.9999 12C12.6019 12 10.7599 12.998 10.0639 15.344C9.80189 16.228 10.3719 17.174 11.2939 17.438Z" fill="#0B9FE9"/>
</svg>
