<svg width="60" height="60" viewBox="0 0 60 60" fill="none" xmlns="http://www.w3.org/2000/svg">
<g clip-path="url(#clip0_129_698)">
<path d="M46.25 7.49994C46.25 4.73744 48.4875 2.49994 51.25 2.49994C54.0125 2.49994 56.25 4.73744 56.25 7.49994C56.25 10.2624 54.0125 12.4999 51.25 12.4999C48.4875 12.4999 46.25 10.2624 46.25 7.49994ZM59.3225 18.2874C57.36 16.1974 54.4175 14.9999 51.25 14.9999C48.0825 14.9999 45.14 16.1974 43.1775 18.2874C42.4975 19.0149 42.31 20.0774 42.7075 20.9924C43.1025 21.9074 44.0075 22.4999 45.0025 22.4999H57.5025C58.4975 22.4999 59.4025 21.9074 59.7975 20.9924C60.1925 20.0774 60.0075 19.0149 59.3275 18.2874H59.3225ZM20 8.74994V16.2499C20 19.6949 17.195 22.4999 13.75 22.4999H6.25C2.805 22.4999 0 19.6949 0 16.2499V8.74994C0 5.30494 2.805 2.49994 6.25 2.49994H13.75C17.195 2.49994 20 5.30494 20 8.74994ZM13.75 9.99994C13.75 8.61994 12.63 7.49994 11.25 7.49994H8.75C7.37 7.49994 6.25 8.61994 6.25 9.99994C6.25 11.3799 7.37 12.4999 8.75 12.4999H11.25C12.63 12.4999 13.75 11.3799 13.75 9.99994ZM35.495 2.64994C34.325 1.62994 32.5 2.45994 32.5 4.01244V4.99994H27.5C26.12 4.99994 25 6.11994 25 7.49994C25 8.87994 26.12 9.99994 27.5 9.99994H32.5V11.0074C32.5 12.5549 34.32 13.3874 35.49 12.3749L39.31 9.07244C40.2325 8.24494 40.2325 6.80244 39.31 5.97494L35.4975 2.64994H35.495ZM35 17.4999H30V16.4924C30 14.9449 28.18 14.1124 27.01 15.1249L23.19 18.4274C22.2675 19.2549 22.2675 20.6974 23.19 21.5249L27.0025 24.8499C28.1725 25.8699 29.9975 25.0399 29.9975 23.4874V22.4999H34.9975C36.38 22.4999 37.4975 21.3799 37.4975 19.9999C37.4975 18.6199 36.38 17.4999 34.9975 17.4999H35ZM57.87 29.2024C55.3525 26.7949 50.96 26.9974 48.69 29.5949L39.8375 38.9374C39.9175 39.4624 40 39.9874 40 40.5324C40 45.7399 36.1125 50.2224 30.9575 50.9574L20.3275 52.4474C18.96 52.6424 17.695 51.6924 17.5 50.3274C17.305 48.9599 18.255 47.6949 19.62 47.4999L30.025 46.0424C32.365 45.7074 34.395 44.0274 34.875 41.7124C35.615 38.1499 32.9 34.9999 29.465 34.9999H10C4.4775 34.9999 0 39.4774 0 44.9999V49.9999C0 55.5224 4.4775 59.9999 10 59.9999H30.6575C35.53 59.9999 40.185 57.9674 43.495 54.3924L58.3425 38.3624C60.7125 35.7074 60.4975 31.5974 57.87 29.2024Z" fill="#252B42"/>
</g>
<defs>
<clipPath id="clip0_129_698">
<rect width="60" height="60" fill="white"/>
</clipPath>
</defs>
</svg>
