<svg width="24" height="24" viewBox="0 0 24 24" fill="none" xmlns="http://www.w3.org/2000/svg">
<g clip-path="url(#clip0_129_340)">
<path d="M12 0.900391C13.5148 0.900389 15.0235 0.887155 16.5459 0.972656C18.3191 1.05865 19.9076 1.46151 21.2227 2.77637C22.535 4.08877 22.9414 5.68053 23.0273 7.4541L23.0547 8.02344C23.1093 9.35106 23.0986 10.6721 23.0986 12C23.0986 13.5172 23.1156 15.0261 23.0273 16.5459C22.9414 18.3194 22.5378 19.9085 21.2227 21.2236C19.9102 22.5359 18.3185 22.9405 16.5449 23.0264L16.5459 23.0273C15.0262 23.1128 13.5175 23.0996 12 23.0996C10.6746 23.0996 9.35375 23.1093 8.02441 23.0547L7.4541 23.0273C5.68058 22.9414 4.09154 22.5388 2.77637 21.2236C1.46399 19.9112 1.05862 18.3195 0.972656 16.5459C0.887169 15.0262 0.900391 13.5148 0.900391 12C0.900391 10.4852 0.887169 8.97656 0.972656 7.4541C1.05862 5.68059 1.46122 4.09154 2.77637 2.77637C4.08877 1.46395 5.68053 1.05861 7.4541 0.972656L8.02344 0.945312C9.351 0.890685 10.6722 0.900391 12 0.900391ZM11.9971 3.07422C11.1912 3.07422 9.93475 3.0419 8.69531 3.08105C7.45219 3.12034 6.24716 3.22998 5.54199 3.50879C5.05392 3.7046 4.69397 3.94347 4.31543 4.31934C3.93768 4.69449 3.70281 5.0573 3.50684 5.5459C3.22821 6.25118 3.11739 7.45546 3.07812 8.69824C3.03897 9.9377 3.07129 11.1941 3.07129 12C3.07129 12.8059 3.03897 14.0617 3.07812 15.3008C3.11739 16.5431 3.2282 17.7474 3.50684 18.4541C3.70276 18.9426 3.93717 19.3034 4.31543 19.6816H4.31641C4.69159 20.0595 5.05433 20.2942 5.54297 20.4902H5.54199C6.24715 20.7691 7.45212 20.8797 8.69531 20.9189C9.93475 20.9581 11.1912 20.9258 11.9971 20.9258C12.8029 20.9258 14.0582 20.9584 15.2969 20.9189C16.5392 20.8793 17.743 20.7673 18.4482 20.4873C18.9367 20.2914 19.2975 20.057 19.6758 19.6787C20.0537 19.3035 20.2884 18.9399 20.4844 18.4512C20.7644 17.7459 20.8764 16.542 20.916 15.2998C20.9555 14.0611 20.9229 12.8058 20.9229 12C20.9229 11.1941 20.9552 9.9377 20.916 8.69824C20.8767 7.45547 20.7659 6.25118 20.4873 5.5459L20.4121 5.36816C20.2307 4.96671 20.0088 4.64943 19.6777 4.31836C19.3025 3.94051 18.9398 3.70577 18.4512 3.50977V3.50879C17.7459 3.23021 16.5415 3.12032 15.2988 3.08105C14.0594 3.0419 12.8029 3.07422 11.9971 3.07422ZM11.9971 6.25586C15.1756 6.25587 17.7412 8.82142 17.7412 12C17.7412 15.1786 15.1756 17.7441 11.9971 17.7441C8.81854 17.7441 6.25293 15.1786 6.25293 12C6.25293 8.82141 8.81854 6.25586 11.9971 6.25586ZM11.9971 8.43164C10.0325 8.43164 8.42871 10.0354 8.42871 12C8.42871 13.9646 10.0325 15.5684 11.9971 15.5684C13.9617 15.5683 15.5654 13.9646 15.5654 12C15.5654 10.0354 13.9617 8.43166 11.9971 8.43164ZM18.0117 4.71582C18.1501 4.72935 18.2861 4.76311 18.415 4.81641C18.5871 4.88754 18.7433 4.99243 18.875 5.12402C19.0067 5.25577 19.1114 5.41278 19.1826 5.58496C19.2537 5.75708 19.2903 5.94169 19.29 6.12793C19.2898 6.9151 18.6563 7.5459 17.8721 7.5459C17.0878 7.54585 16.4543 6.91219 16.4541 6.12793C16.4541 5.34349 17.0876 4.70903 17.8721 4.70898L18.0117 4.71582Z" fill="#8EC2F2" stroke="#8EC2F2" stroke-width="0.2"/>
</g>
<defs>
<clipPath id="clip0_129_340">
<rect width="24" height="24" fill="white"/>
</clipPath>
</defs>
</svg>
