<svg width="48" height="48" viewBox="0 0 48 48" fill="none" xmlns="http://www.w3.org/2000/svg">
<g clip-path="url(#clip0_129_441)">
<path d="M39 28C41.762 28 44 30.238 44 33C44 35.762 41.762 38 39 38C36.238 38 34 35.762 34 33C34 30.238 36.238 28 39 28ZM19 33C19 35.762 21.238 38 24 38C26.762 38 29 35.762 29 33C29 30.238 26.762 28 24 28C21.238 28 19 30.238 19 33ZM9 28C6.238 28 4 30.238 4 33C4 35.762 6.238 38 9 38C11.762 38 14 35.762 14 33C14 30.238 11.762 28 9 28ZM39 40C36.236 40 33.688 41.06 31.874 42.866C29.796 41.042 27.004 40 24 40C20.996 40 18.204 41.042 16.126 42.866C14.312 41.06 11.764 40 9 40C5.25 40 1.89 41.94 0.232002 45.062C-0.285998 46.038 0.0860016 47.248 1.062 47.768C2.038 48.284 3.25 47.914 3.768 46.938C4.714 45.152 6.768 44 9 44C11.232 44 13.288 45.152 14.232 46.938C14.25 46.972 14.772 48 16.002 48C17.232 48 17.64 47.142 17.656 47.12C18.956 45.196 21.388 44 24 44C26.612 44 29.042 45.196 30.344 47.12C30.364 47.15 30.85 48 32.002 48C33.154 48 33.752 46.966 33.768 46.938C34.714 45.152 36.768 44 39 44C41.232 44 43.288 45.152 44.232 46.938C44.592 47.616 45.284 48 46.002 48C46.318 48 46.638 47.926 46.938 47.768C47.914 47.248 48.286 46.04 47.768 45.062C46.11 41.938 42.75 40 39 40ZM13.47 16.758L15.436 15.626C15.178 14.79 15 13.92 15 13C15 12.08 15.178 11.21 15.436 10.374L13.47 9.242C12.512 8.692 12.182 7.468 12.736 6.512C13.284 5.554 14.51 5.222 15.466 5.778L17.42 6.904C18.63 5.6 20.206 4.652 21.998 4.242V2C21.998 0.894 22.892 0 23.998 0C25.104 0 25.998 0.894 25.998 2V4.242C27.79 4.652 29.368 5.598 30.576 6.904L32.53 5.778C33.488 5.224 34.71 5.556 35.26 6.512C35.812 7.47 35.482 8.692 34.526 9.242L32.56 10.374C32.818 11.21 32.996 12.08 32.996 13C32.996 13.92 32.818 14.79 32.56 15.626L34.526 16.758C35.484 17.308 35.814 18.532 35.26 19.488C34.89 20.13 34.218 20.49 33.526 20.49C33.188 20.49 32.844 20.404 32.53 20.222L30.576 19.096C29.366 20.4 27.79 21.348 25.998 21.758V24C25.998 25.106 25.104 26 23.998 26C22.892 26 21.998 25.106 21.998 24V21.758C20.206 21.348 18.628 20.402 17.42 19.096L15.466 20.222C15.152 20.404 14.808 20.49 14.47 20.49C13.778 20.49 13.104 20.13 12.736 19.488C12.184 18.53 12.514 17.308 13.47 16.758ZM19 13C19 15.758 21.242 18 24 18C26.758 18 29 15.758 29 13C29 10.242 26.758 8 24 8C21.242 8 19 10.242 19 13ZM2 28C3.106 28 4 27.106 4 26V20C4 17.794 5.794 16 8 16C9.106 16 10 15.106 10 14C10 12.894 9.106 12 8 12C3.588 12 1.55531e-06 15.588 1.55531e-06 20V26C1.55531e-06 27.106 0.894002 28 2 28ZM40 12C38.894 12 38 12.894 38 14C38 15.106 38.894 16 40 16C42.206 16 44 17.794 44 20V26C44 27.106 44.894 28 46 28C47.106 28 48 27.106 48 26V20C48 15.588 44.412 12 40 12Z" fill="#0B9FE9"/>
</g>
<defs>
<clipPath id="clip0_129_441">
<rect width="48" height="48" fill="white"/>
</clipPath>
</defs>
</svg>
