<svg width="18" height="30" viewBox="0 0 18 30" fill="none" xmlns="http://www.w3.org/2000/svg">
<path d="M17.2392 0.741723C16.2008 -0.270677 14.4894 -0.243111 13.417 0.802483L0.823286 13.081C0.537937 13.3594 0.329193 13.6828 0.192303 14.0253C0.177757 14.0603 0.166254 14.0962 0.153353 14.1316C0.142067 14.1638 0.129601 14.1954 0.119596 14.2278C-0.169285 15.1354 0.0654545 16.1797 0.82069 16.9165L13.417 29.1975C14.4896 30.2432 16.2009 30.2706 17.2392 29.2583C18.2774 28.2459 18.2494 26.5774 17.1769 25.5317L6.3749 15L17.1769 4.46832C18.2494 3.42272 18.2776 1.75412 17.2392 0.741723Z" fill="#BDBDBD"/>
</svg>
