<svg width="24" height="24" viewBox="0 0 24 24" fill="none" xmlns="http://www.w3.org/2000/svg">
<g clip-path="url(#clip0_129_344)">
<path d="M12.5 14.1498C15.1196 14.1498 17.25 11.997 17.25 9.3498C17.25 6.7026 15.1196 4.5498 12.5 4.5498C9.88041 4.5498 7.75006 6.7026 7.75006 9.3498C7.75006 11.997 9.88041 14.1498 12.5 14.1498ZM12.5 6.9498C13.8098 6.9498 14.875 8.0262 14.875 9.3498C14.875 10.6734 13.8098 11.7498 12.5 11.7498C11.1902 11.7498 10.125 10.6734 10.125 9.3498C10.125 8.0262 11.1902 6.9498 12.5 6.9498Z" fill="#8EC2F2"/>
<path d="M11.8113 23.5268C12.0122 23.6718 12.253 23.7498 12.5 23.7498C12.747 23.7498 12.9878 23.6718 13.1887 23.5268C13.5497 23.2688 22.0343 17.078 21.9999 9.35C21.9999 4.0568 17.738 -0.25 12.5 -0.25C7.262 -0.25 3.0001 4.0568 3.0001 9.344C2.96567 17.078 11.4503 23.2688 11.8113 23.5268ZM12.5 2.15C16.4294 2.15 19.6249 5.3792 19.6249 9.356C19.6499 14.6816 14.4142 19.4636 12.5 21.032C10.587 19.4624 5.35014 14.6792 5.37508 9.35C5.37508 5.3792 8.57061 2.15 12.5 2.15Z" fill="#8EC2F2"/>
</g>
<defs>
<clipPath id="clip0_129_344">
<rect width="19" height="24" fill="white" transform="translate(3 -0.25)"/>
</clipPath>
</defs>
</svg>
