<svg width="32" height="32" viewBox="0 0 32 32" fill="none" xmlns="http://www.w3.org/2000/svg">
<g clip-path="url(#clip0_129_1459)">
<path d="M30.6667 29.3333H27.996L23.884 23.896L25.376 22.124L26.1933 23.1453C26.6427 23.7067 27.3133 24.032 28.032 24.036H28.048C28.7613 24.036 29.4293 23.72 29.9147 23.1267L31.7667 20.684C31.9547 20.436 32 19.9973 32 19.8213V18.9493C32 18.6653 31.884 18.3933 31.7067 18.172L28.108 13.6867C27.2573 12.6013 25.972 12.0307 24.5987 11.9973C23.22 12.0093 21.952 12.6467 21.1227 13.744L18.6573 16.9813L14.1813 11.0627C13.6187 10.328 12.8547 9.82667 12.0013 9.55867V6.66533L15.22 4.65333C16.196 4.04267 16.196 2.62133 15.22 2.01067L12.544 0.34C12.188 0.117333 11.7773 0 11.3587 0H10.6667C9.93067 0 9.33333 0.597333 9.33333 1.33333V9.56667C8.484 9.83733 7.72533 10.3387 7.172 11.0667L0.28 19.9333C0.084 20.1867 0 20.488 0 20.784C0 21.1707 0.186667 21.5493 0.514667 21.804C1.096 22.2533 1.93333 22.1507 2.38533 21.5693L4.10933 19.3507L5.39867 21.4907C5.82133 22.1933 6.564 22.6347 7.38267 22.6707C8.22533 22.704 8.98 22.332 9.43867 21.6987L9.95333 21.0333L11.3493 22.988C11.804 23.6253 12.544 24.0067 13.3267 24.0093H13.3347C14.1147 24.0093 14.8533 23.632 15.312 23L17.5373 19.9267L24.6507 29.332H1.33333C0.597333 29.3333 0 29.9307 0 30.6667C0 31.4027 0.597333 32 1.33333 32H30.6667C31.4027 32 32 31.4027 32 30.6667C32 29.9307 31.4027 29.3333 30.6667 29.3333ZM23.2453 15.3587C23.5747 14.924 24.076 14.6707 24.6213 14.6667C25.1827 14.6427 25.672 14.9053 26.0173 15.3467L29.3347 19.48L28.0413 21.188L27.236 20.1813C26.7787 19.6107 26.0907 19.2907 25.364 19.2907C24.6333 19.296 23.956 19.6293 23.54 20.1667L22.2347 21.716L20.3253 19.192L23.2453 15.36V15.3587ZM13.3387 21.1827L11.084 18.0253C10.8387 17.6827 10.4453 17.4747 10.024 17.4667C9.596 17.4547 9.20133 17.6507 8.944 17.984L7.51467 19.8333L5.864 17.0947L9.288 12.6893C9.62 12.252 10.124 12 10.6733 11.9987H10.6773C11.224 11.9987 11.7293 12.248 12.0573 12.6773L15.8573 17.7027L13.3387 21.1827Z" fill="#FFA62B"/>
</g>
<defs>
<clipPath id="clip0_129_1459">
<rect width="32" height="32" fill="white"/>
</clipPath>
</defs>
</svg>
