<svg width="48" height="48" viewBox="0 0 48 48" fill="none" xmlns="http://www.w3.org/2000/svg">
<g clip-path="url(#clip0_129_502)">
<path d="M36 16C40.412 16 44 12.412 44 8C44 3.588 40.412 0 36 0C31.588 0 28 3.588 28 8C28 12.412 31.588 16 36 16ZM36 4C38.206 4 40 5.794 40 8C40 10.206 38.206 12 36 12C33.794 12 32 10.206 32 8C32 5.794 33.794 4 36 4ZM16 22C16 26.412 19.588 30 24 30C28.412 30 32 26.412 32 22C32 17.588 28.412 14 24 14C19.588 14 16 17.588 16 22ZM24 18C26.206 18 28 19.794 28 22C28 24.206 26.206 26 24 26C21.794 26 20 24.206 20 22C20 19.794 21.794 18 24 18ZM12 16C16.412 16 20 12.412 20 8C20 3.588 16.412 0 12 0C7.588 0 4 3.588 4 8C4 12.412 7.588 16 12 16ZM12 4C14.206 4 16 5.794 16 8C16 10.206 14.206 12 12 12C9.794 12 8 10.206 8 8C8 5.794 9.794 4 12 4ZM46 44H36C36 37.382 30.618 32 24 32C17.382 32 12 37.382 12 44H2C0.894 44 0 44.894 0 46C0 47.106 0.894 48 2 48H46C47.106 48 48 47.106 48 46C48 44.894 47.106 44 46 44ZM24 36C28.412 36 32 39.588 32 44H16C16 39.588 19.588 36 24 36ZM48 32C48 33.106 47.106 34 46 34C44.894 34 44 33.106 44 32C44 28.156 41.25 24.7 37.602 23.96C36.52 23.74 35.82 22.684 36.04 21.6C36.26 20.52 37.306 19.828 38.4 20.038C43.962 21.166 48.002 26.198 48.002 31.998L48 32ZM0 32C0 26.2 4.04 21.168 9.602 20.04C10.702 19.836 11.74 20.522 11.962 21.602C12.18 22.686 11.482 23.74 10.4 23.962C6.752 24.7 4.002 28.158 4.002 32.002C4.002 33.108 3.108 34.002 2.002 34.002C0.896 34.002 0.002 33.108 0.002 32.002L0 32Z" fill="#0B9FE9"/>
</g>
<defs>
<clipPath id="clip0_129_502">
<rect width="48" height="48" fill="white"/>
</clipPath>
</defs>
</svg>
