<svg width="48" height="48" viewBox="0 0 48 48" fill="none" xmlns="http://www.w3.org/2000/svg">
<g clip-path="url(#clip0_129_487)">
<path d="M34.3261 26C35.1941 28.882 37.8401 31 41.0001 31C44.8601 31 48.0001 27.86 48.0001 24C48.0001 20.14 44.8601 17 41.0001 17C37.8401 17 35.1941 19.118 34.3261 22H32.0001V10C32.0001 9.45 32.4501 9 33.0001 9H34.3261C35.1941 11.882 37.8401 14 41.0001 14C44.8601 14 48.0001 10.86 48.0001 7C48.0001 3.14 44.8601 0 41.0001 0C37.8401 0 35.1941 2.118 34.3261 5H33.0001C30.2421 5 28.0001 7.242 28.0001 10V22H24.0001V26H28.0001V38C28.0001 40.758 30.2421 43 33.0001 43H34.3261C35.1941 45.882 37.8401 48 41.0001 48C44.8601 48 48.0001 44.86 48.0001 41C48.0001 37.14 44.8601 34 41.0001 34C37.8401 34 35.1941 36.118 34.3261 39H33.0001C32.4501 39 32.0001 38.55 32.0001 38V26H34.3261ZM41.0001 21C42.6541 21 44.0001 22.346 44.0001 24C44.0001 25.654 42.6541 27 41.0001 27C39.3461 27 38.0001 25.654 38.0001 24C38.0001 22.346 39.3461 21 41.0001 21ZM41.0001 4C42.6541 4 44.0001 5.346 44.0001 7C44.0001 8.654 42.6541 10 41.0001 10C39.3461 10 38.0001 8.654 38.0001 7C38.0001 5.346 39.3461 4 41.0001 4ZM41.0001 38C42.6541 38 44.0001 39.346 44.0001 41C44.0001 42.654 42.6541 44 41.0001 44C39.3461 44 38.0001 42.654 38.0001 41C38.0001 39.346 39.3461 38 41.0001 38ZM21.4001 16.278L18.5781 17.904C17.3681 16.6 15.7921 15.652 13.9981 15.242V12H9.9981V15.242C8.2061 15.652 6.6281 16.6 5.4181 17.904L2.5961 16.278L0.600098 19.742L3.4321 21.374C3.1741 22.21 2.9961 23.08 2.9961 24C2.9961 24.92 3.1741 25.79 3.4321 26.626L0.600098 28.258L2.5961 31.722L5.4181 30.096C6.6281 31.4 8.2041 32.348 9.9981 32.758V36H13.9981V32.758C15.7901 32.348 17.3681 31.4 18.5781 30.096L21.4001 31.722L23.3961 28.258L20.5641 26.626C20.8221 25.79 21.0001 24.92 21.0001 24C21.0001 23.08 20.8221 22.21 20.5641 21.374L23.3961 19.742L21.4001 16.278ZM12.0001 29C9.2421 29 7.0001 26.758 7.0001 24C7.0001 21.242 9.2421 19 12.0001 19C14.7581 19 17.0001 21.242 17.0001 24C17.0001 26.758 14.7581 29 12.0001 29Z" fill="#0B9FE9"/>
</g>
<defs>
<clipPath id="clip0_129_487">
<rect width="48" height="48" fill="white"/>
</clipPath>
</defs>
</svg>
