<svg width="48" height="48" viewBox="0 0 48 48" fill="none" xmlns="http://www.w3.org/2000/svg">
<g clip-path="url(#clip0_129_494)">
<path d="M46.542 34.4641C46.542 34.4641 40.1441 28.3161 40.1241 28.2981C39.9641 27.4681 39.792 26.5401 40.684 26.0041C42.666 24.7401 43.9821 22.3981 43.9481 20.0101C43.9821 17.6001 42.674 15.2701 40.682 13.9961C40.146 13.6501 39.872 13.0361 40.002 12.4661C40.2701 11.2801 40.23 10.0661 39.882 8.85609C39.224 6.56009 37.3881 4.72609 35.0941 4.06809C33.8841 3.72009 32.6701 3.68009 31.486 3.95009C30.916 4.07809 30.3041 3.80609 29.958 3.27009C29.316 2.27209 28.442 1.46409 27.364 0.866094C25.2761 -0.293906 22.68 -0.293906 20.59 0.866094C19.5121 1.46409 18.64 2.27209 17.998 3.26809C17.652 3.80609 17.0441 4.08009 16.4681 3.95009C15.286 3.68009 14.0721 3.72209 12.8621 4.06809C10.566 4.72609 8.73005 6.56209 8.07405 8.85609C7.72605 10.0681 7.68605 11.2821 7.95405 12.4661C8.08205 13.0341 7.81005 13.6481 7.27205 13.9961C5.28805 15.2621 3.97205 17.6021 4.00605 19.9901C3.97205 22.4021 5.28005 24.7281 7.27405 26.0041C8.17805 26.5481 7.98205 27.4901 7.82605 28.3301C7.82205 28.3341 1.45805 34.4641 1.45805 34.4641C0.11405 35.7601 -0.34195 37.6621 0.26605 39.4261C0.87605 41.1901 2.40605 42.4041 4.26205 42.5961L5.75005 42.7501L5.91205 43.9081C6.16005 45.6921 7.37205 47.1601 9.07605 47.7421C10.754 48.3201 12.634 47.9121 13.918 46.6521L21.3601 39.4401C22.202 39.7801 23.082 40.0041 23.98 40.0041C24.89 40.0041 25.78 39.7761 26.63 39.4261L34.078 46.6441C35.368 47.9101 37.244 48.3201 38.926 47.7421C40.63 47.1601 41.842 45.6921 42.092 43.9081L42.252 42.7521L43.7401 42.5981C45.5961 42.4061 47.128 41.1921 47.736 39.4281C48.3441 37.6641 47.8881 35.7621 46.544 34.4661L46.542 34.4641ZM11.126 43.7841C10.616 44.2281 9.96005 44.0461 9.87205 43.3561L9.49605 40.6481C9.37005 39.7361 8.63605 39.0281 7.72005 38.9341L4.67205 38.6181C3.94605 38.5541 3.76405 37.7721 4.23205 37.3441L8.86205 32.8801C9.76805 34.3341 11.186 35.4521 12.86 35.9321C14.07 36.2781 15.286 36.3201 16.4681 36.0501C17.16 35.8681 17.788 36.3661 18.178 36.9481L11.124 43.7841H11.126ZM22.5301 35.6361C22.0361 35.3621 21.642 35.0001 21.3601 34.5621C20.3241 32.9601 18.566 32.0201 16.748 32.0201C15.804 32.0161 14.926 32.4241 13.966 32.0881C13 31.8121 12.196 31.0081 11.92 30.0421C11.76 29.4861 11.74 28.9401 11.858 28.4201C12.356 26.2201 11.3881 23.9001 9.44805 22.6461C8.58205 22.0841 7.99005 21.0821 8.01005 19.9921C7.99005 18.9261 8.59005 17.9101 9.44605 17.3581C11.39 16.1041 12.358 13.7841 11.858 11.5821C11.74 11.0621 11.762 10.5181 11.922 9.96009C12.198 8.99409 13 8.19209 13.9681 7.91609C14.524 7.75809 15.0701 7.73609 15.588 7.85209C17.784 8.35409 20.1101 7.38609 21.364 5.44009C21.646 5.00209 22.0401 4.64209 22.534 4.36609C23.4121 3.88009 24.5501 3.88009 25.43 4.36609C25.9261 4.64209 26.32 5.00209 26.602 5.44009C27.856 7.38409 30.178 8.35009 32.376 7.85209C32.898 7.73609 33.442 7.75609 33.996 7.91609C34.962 8.19209 35.766 8.99609 36.044 9.96209C36.204 10.5181 36.224 11.0641 36.106 11.5821C35.606 13.7821 36.574 16.1041 38.516 17.3561C39.38 17.9181 39.972 18.9201 39.952 20.0101C39.972 21.0761 39.3721 22.0921 38.5181 22.6441C36.5741 23.8981 35.604 26.2181 36.104 28.4181C36.222 28.9401 36.202 29.4861 36.042 30.0401C35.764 31.0061 34.962 31.8101 33.994 32.0861C33.444 32.2461 32.898 32.2701 32.376 32.1501C30.18 31.6501 27.8561 32.6201 26.6 34.5621C26.3181 35.0001 25.924 35.3601 25.428 35.6361C24.55 36.1221 23.41 36.1221 22.5301 35.6361ZM43.328 38.6181L40.28 38.9341C39.364 39.0281 38.632 39.7361 38.5041 40.6481L38.1301 43.3561C38.0121 44.0281 37.356 44.2401 36.868 43.7781L29.796 36.9241C30.182 36.3461 30.8041 35.8701 31.4881 36.0501C32.6721 36.3201 33.8841 36.2781 35.0941 35.9321C36.7801 35.4501 38.208 34.3241 39.112 32.8561L43.7681 37.3441C44.0661 37.6321 44.182 38.4861 43.328 38.6181ZM32.6981 23.4561L33.94 18.4861C34.2701 16.3521 32.764 14.0161 30 14.0001H25.142L25.916 11.5901C26 11.0921 25.958 10.8161 25.9261 10.6961C25.646 9.66609 24.806 9.00009 23.788 9.00009C22.9221 9.00809 22.364 9.46009 21.814 10.2701L18.8561 13.9981H18.0021C15.7961 13.9981 14.002 15.7921 14.002 17.9981V23.9981C14.002 26.2041 15.7961 27.9981 18.0021 27.9981H26.878C29.636 27.9981 32.0301 26.1301 32.6981 23.4561ZM28.8181 22.4861C28.5961 23.3781 27.798 24.0021 26.878 24.0021H22.0021V18.0021H29.9401L28.8181 22.4861Z" fill="#0B9FE9"/>
</g>
<defs>
<clipPath id="clip0_129_494">
<rect width="48" height="48" fill="white"/>
</clipPath>
</defs>
</svg>
