<svg width="48" height="48" viewBox="0 0 48 48" fill="none" xmlns="http://www.w3.org/2000/svg">
<g clip-path="url(#clip0_129_183)">
<path d="M45.6561 19.828L38.8541 13.026C37.8781 5.66 31.5181 0 24.0001 0C17.5401 0 11.9701 4.078 9.88608 10.056C9.47008 10.096 9.05408 10.16 8.64008 10.248C4.36808 11.142 0.968081 14.646 0.184081 18.964C-0.541919 22.98 0.910081 26.896 4.00008 29.43V29.998C4.00008 30.53 4.21008 31.038 4.58608 31.412L6.17208 32.998L4.58608 34.584C3.80408 35.366 3.80408 36.63 4.58608 37.412L6.17208 38.998L4.58608 40.584C4.21008 40.96 4.00008 41.468 4.00008 41.998C4.00008 42.528 4.21008 43.038 4.58608 43.412L7.88208 46.706C8.74208 47.566 9.87008 47.998 11.0021 47.998C12.1301 47.998 13.2621 47.566 14.1221 46.706L16.2441 44.582C17.3761 43.45 18.0021 41.942 18.0021 40.34V29.478C20.5261 27.396 22.0021 24.3 22.0021 20.996C22.0021 17.668 20.5201 14.554 17.9341 12.454C16.7641 11.504 15.4241 10.832 14.0081 10.432C15.7621 6.564 19.6081 3.998 24.0041 3.998C29.4441 3.998 34.0221 8.048 34.8321 13.342L28.3481 19.826C26.8581 21.314 26.0041 23.376 26.0041 25.482V39.998C26.0041 44.41 29.5921 47.998 34.0041 47.998H40.0041C44.4161 47.998 48.0041 44.41 48.0041 39.998V25.482C48.0041 23.376 47.1501 21.314 45.6601 19.826L45.6561 19.828ZM18.0001 21C18.0001 23.338 16.8361 25.512 14.8861 26.818C14.3321 27.19 14.0001 27.812 14.0001 28.48V40.344C14.0001 40.87 13.7881 41.386 13.4141 41.758L11.2921 43.882C11.1561 44.018 10.8461 44.018 10.7101 43.882L8.82808 42.002L10.4141 40.416C11.1961 39.634 11.1961 38.37 10.4141 37.588L8.82808 36.002L10.4141 34.416C11.1961 33.634 11.1961 32.37 10.4141 31.588L8.00008 29.174V28.43C8.00008 27.764 7.66808 27.14 7.11608 26.77C4.76208 25.19 3.61608 22.474 4.12208 19.682C4.61808 16.948 6.76408 14.728 9.46208 14.164C11.6381 13.71 13.7421 14.208 15.4121 15.564C17.0581 16.902 18.0021 18.882 18.0021 21.002L18.0001 21ZM44.0001 40C44.0001 42.206 42.2061 44 40.0001 44H34.0001C31.7941 44 30.0001 42.206 30.0001 40V25.484C30.0001 24.432 30.4281 23.4 31.1721 22.656L37.0001 16.828L42.8281 22.656C43.5721 23.4 44.0001 24.432 44.0001 25.484V40ZM11.0001 16C12.6561 16 14.0001 17.344 14.0001 19C14.0001 20.656 12.6561 22 11.0001 22C9.34408 22 8.00008 20.656 8.00008 19C8.00008 17.344 9.34408 16 11.0001 16Z" fill="#0B9FE9"/>
</g>
<defs>
<clipPath id="clip0_129_183">
<rect width="48" height="48" fill="white"/>
</clipPath>
</defs>
</svg>
