<svg width="18" height="30" viewBox="0 0 18 30" fill="none" xmlns="http://www.w3.org/2000/svg">
<path d="M0.760763 0.741723C1.79915 -0.270677 3.51058 -0.243111 4.58302 0.802483L17.1767 13.081C17.4621 13.3594 17.6708 13.6828 17.8077 14.0253C17.8222 14.0603 17.8337 14.0962 17.8466 14.1316C17.8579 14.1638 17.8704 14.1954 17.8804 14.2278C18.1693 15.1354 17.9345 16.1797 17.1793 16.9165L4.58302 29.1975C3.51035 30.2432 1.79911 30.2706 0.760763 29.2583C-0.277355 28.2459 -0.24936 26.5774 0.823082 25.5317L11.6251 15L0.823082 4.46832C-0.249352 3.42272 -0.277625 1.75412 0.760763 0.741723Z" fill="#BDBDBD"/>
</svg>
