<svg width="8" height="12" viewBox="0 0 8 12" fill="none" xmlns="http://www.w3.org/2000/svg">
<path d="M0.706035 0.707012C1.09656 0.316487 1.74021 0.32712 2.14354 0.730449L6.87986 5.46678C6.98718 5.57417 7.06569 5.69891 7.11717 5.83104C7.12264 5.84452 7.12696 5.85837 7.13182 5.87205C7.13606 5.88445 7.14075 5.89665 7.14451 5.90916C7.25316 6.25923 7.16487 6.66208 6.88084 6.94627L2.14354 11.6836C1.74012 12.0869 1.09654 12.0975 0.706035 11.707C0.315612 11.3165 0.326141 10.6729 0.729473 10.2695L4.79197 6.20701L0.729473 2.14451C0.326144 1.74118 0.315511 1.09754 0.706035 0.707012Z" fill="#FAFAFA"/>
</svg>
