<svg width="200" height="31" viewBox="0 0 200 31" fill="none" xmlns="http://www.w3.org/2000/svg">
<g clip-path="url(#clip0_129_280)">
<g clip-path="url(#clip1_129_280)">
<path d="M189.486 13.616V17.836H192.41V22.0229C192.42 22.3971 192.399 22.8006 192.336 23.1234C192.22 23.9044 191.488 25.2342 189.412 25.2342C187.349 25.2342 186.631 23.9044 186.507 23.1234C186.454 22.8006 186.431 22.3971 186.431 22.0229V8.79861C186.431 8.33084 186.463 7.81885 186.561 7.43133C186.702 6.72652 187.318 5.33658 189.397 5.33658C191.58 5.33658 192.124 6.80194 192.249 7.43133C192.331 7.8482 192.336 8.54745 192.336 8.54745V10.1532H199.521V9.20399C199.521 9.20399 199.555 8.21343 199.467 7.28904C198.927 1.86118 194.517 0.143902 189.46 0.143902C184.395 0.143902 180.074 1.87714 179.445 7.28904C179.389 7.78393 179.301 8.67414 179.301 9.20399V21.369C179.301 21.8988 179.318 22.309 179.415 23.2772C179.884 28.5557 184.395 30.4269 189.44 30.4269C194.517 30.4269 198.997 28.5557 199.474 23.2772C199.559 22.309 199.568 21.8988 199.579 21.369V13.616H189.486ZM139.941 0.922283H132.726V22.328C132.737 22.701 132.726 23.1201 132.662 23.4273C132.512 24.1459 131.911 25.5288 129.921 25.5288C127.955 25.5288 127.339 24.1459 127.2 23.4273C127.128 23.1201 127.119 22.701 127.128 22.328V0.922283H119.914V21.6636C119.905 22.1983 119.946 23.2906 119.977 23.5767C120.475 28.9816 124.675 30.7363 129.921 30.7363C135.176 30.7363 139.373 28.9816 139.88 23.5767C139.921 23.2906 139.973 22.1983 139.941 21.6636V0.922283ZM73.6411 0.922283L70.0416 23.5403L66.4443 0.922283H54.8046L54.1873 29.8573H61.3182L61.5113 3.07128L66.4176 29.8573H73.6524L78.5632 3.07128L78.757 29.8573H85.9058L85.2675 0.922283H73.6411ZM30.5457 0.922283L25.2606 29.8573H32.9677L36.9504 3.07128L40.8375 29.8573H48.4912L43.228 0.922283H30.5457ZM165.16 24.2184L158.44 0.922283H147.852V29.5556H154.857L154.45 5.51418L161.666 29.5556H171.82V0.922283H164.77L165.16 24.2184ZM100.373 8.4527C100.246 7.88127 100.283 7.27417 100.348 6.95688C100.553 6.03062 101.166 5.02039 102.935 5.02039C104.583 5.02039 105.548 6.0622 105.548 7.62565V9.39495H112.583V7.3782C112.583 1.14372 107.071 0.16434 103.08 0.16434C98.055 0.16434 93.9502 1.84445 93.2009 6.53554C93.0026 7.81217 92.9537 8.94537 93.269 10.3914C94.4908 16.2406 104.532 17.9374 105.99 21.6365C106.246 22.3373 106.173 23.2308 106.042 23.7573C105.824 24.7199 105.185 25.6882 103.292 25.6882C101.516 25.6882 100.448 24.6531 100.448 23.093L100.445 20.3161H92.8743V22.5234C92.8743 28.9195 97.814 30.8493 103.135 30.8493C108.231 30.8493 112.439 29.0833 113.114 24.2964C113.437 21.823 113.194 20.212 113.065 19.6053C111.885 13.606 101.183 11.8014 100.373 8.4527ZM7.58366 8.38174C7.44555 7.79842 7.47778 7.18277 7.55472 6.86176C7.74963 5.93996 8.36693 4.9119 10.1661 4.9119C11.8349 4.9119 12.8175 5.96374 12.8175 7.53983V9.33065H19.9341V7.29796C19.9341 1.00365 14.3383 0.000488281 10.3043 0.000488281C5.23638 0.000488281 1.09541 1.70661 0.337783 6.43151C0.130424 7.72857 0.0948751 8.86955 0.394558 10.3316C1.62993 16.2473 11.77 17.9579 13.2454 21.7012C13.5217 22.3971 13.4381 23.2906 13.301 23.8375C13.067 24.8102 12.4233 25.7922 10.5146 25.7922C8.7322 25.7922 7.6661 24.7392 7.6661 23.1576L7.6562 20.3733H0V22.5858C0 29.0551 5.00997 31.0004 10.3721 31.0004C15.5271 31.0004 19.7604 29.2189 20.451 24.3766C20.7942 21.8806 20.5367 20.2562 20.421 19.6402C19.2167 13.5674 8.39589 11.7688 7.58366 8.38174Z" fill="#737373"/>
</g>
</g>
<defs>
<clipPath id="clip0_129_280">
<rect width="200" height="31" fill="white"/>
</clipPath>
<clipPath id="clip1_129_280">
<rect width="200" height="31" fill="white"/>
</clipPath>
</defs>
</svg>
