<svg width="48" height="48" viewBox="0 0 48 48" fill="none" xmlns="http://www.w3.org/2000/svg">
<path d="M2.06401 13.344C2.76001 10.998 4.60202 10 8.00002 10C10.008 10 11.46 10.36 12.466 11.128C10.06 12.308 8.87602 14.224 8.31002 15.982C6.45002 16.05 4.64802 15.822 3.29401 15.436C2.37201 15.172 1.80201 14.23 2.06401 13.344ZM27.69 15.982C29.55 16.05 31.352 15.822 32.706 15.438C33.628 15.174 34.198 14.23 33.936 13.344C33.24 10.998 31.398 10 28 10C25.992 10 24.54 10.36 23.534 11.128C25.938 12.308 27.122 14.222 27.69 15.982ZM44.886 29.48C37.078 40.442 27.358 46 16 46C9.87402 46 4.82001 45.004 4.60801 44.96C3.85001 44.808 3.24802 44.234 3.06202 43.484C3.01802 43.31 2.00202 39.196 2.00202 34.998C2.00202 30.8 3.01802 26.686 3.06202 26.512C3.25002 25.758 3.85601 25.182 4.62001 25.034C4.83801 24.992 10.032 23.998 16 23.998C21.042 23.998 24.638 25.062 24.79 25.108C26.84 25.724 28.332 27.372 28.774 29.394C31.006 27.606 33.124 25.312 35.114 22.518C36.934 19.852 40.888 19.182 43.482 21.112C46.15 22.926 46.81 26.892 44.886 29.48ZM41.972 25.668C41.884 25.142 41.596 24.682 41.16 24.372C40.302 23.73 38.976 23.948 38.37 24.84C32.648 32.874 25.854 37.298 18.178 37.992C17.098 38.08 16.106 37.282 16.006 36.18C15.906 35.08 16.718 34.108 17.818 34.008C19.772 33.832 21.662 33.34 23.5 32.582C24.45 32.19 24.918 31.568 24.906 30.652C24.906 29.868 24.382 29.166 23.634 28.94C23.606 28.932 20.418 28 15.998 28C12.108 28 8.51002 28.462 6.66802 28.746C6.38802 30.172 5.99802 32.606 5.99802 35C5.99802 37.394 6.38802 39.836 6.66802 41.258C8.48202 41.542 12.032 42 15.998 42C25.988 42 34.612 37.006 41.626 27.16C41.936 26.724 42.06 26.196 41.972 25.668ZM18 12C20.142 12 21 11.142 21 9C21 6.858 20.142 6 18 6C15.858 6 15 6.858 15 9C15 11.142 15.858 12 18 12ZM28 8C30.142 8 31 7.142 31 5C31 2.858 30.142 2 28 2C25.858 2 25 2.858 25 5C25 7.142 25.858 8 28 8ZM8.00002 8C10.142 8 11 7.142 11 5C11 2.858 10.142 2 8.00002 2C5.85802 2 5.00002 2.858 5.00002 5C5.00002 7.142 5.85802 8 8.00002 8ZM13.294 19.438C14.604 19.814 16.158 20 18 20C19.842 20 21.396 19.814 22.706 19.438C23.628 19.174 24.198 18.23 23.936 17.344C23.24 14.998 21.398 14 18 14C14.602 14 12.76 14.998 12.064 17.344C11.802 18.228 12.372 19.174 13.294 19.438Z" fill="#0B9FE9"/>
</svg>
