<svg width="48" height="48" viewBox="0 0 48 48" fill="none" xmlns="http://www.w3.org/2000/svg">
<g clip-path="url(#clip0_129_31)">
<path d="M-2.83201e-05 5.99995C-2.83201e-05 4.89595 0.895972 3.99995 1.99997 3.99995H2.69597C4.54797 3.99995 6.40397 3.56195 8.06197 2.73395L11.426 1.05195C12.804 0.363953 14.344 0.00195312 15.88 0.00195312C18.442 0.00195312 20.824 0.923953 22.66 2.59795L24.06 3.87395L25.296 2.70995C28.266 -0.088047 32.914 -0.776047 36.574 1.05195L39.938 2.73395C41.596 3.56395 43.452 3.99995 45.304 3.99995H46C47.104 3.99995 48 4.89595 48 5.99995C48 7.10395 47.104 7.99995 46 7.99995H45.304C42.834 7.99995 40.36 7.41595 38.148 6.31195L34.784 4.62995C32.596 3.53795 29.812 3.94795 28.036 5.61995L18.626 14.478C17.91 15.196 17.742 16.386 18.29 17.148C18.648 17.646 19.174 17.946 19.768 17.994C20.352 18.05 20.93 17.832 21.344 17.414L29.692 9.42395C30.49 8.66195 31.756 8.68795 32.52 9.48595C33.284 10.284 33.256 11.55 32.458 12.314L28.924 15.696L31.196 17.4C32.08 18.062 32.258 19.316 31.596 20.2C31.204 20.724 30.602 21 29.994 21C29.578 21 29.156 20.87 28.796 20.6L25.996 18.5L24.142 20.274C23.04 21.376 21.518 22 19.934 22C19.772 22 19.61 21.994 19.446 21.98C17.69 21.838 16.084 20.928 15.044 19.482C13.354 17.134 13.696 13.748 15.84 11.604L21.134 6.61995L19.962 5.55195C18.126 3.87995 15.264 3.59795 13.21 4.62795L9.84797 6.30995C7.63797 7.41395 5.16397 7.99795 2.69197 7.99795H1.99597C0.891972 7.99795 -0.00402832 7.10195 -0.00402832 5.99795L-2.83201e-05 5.99995ZM48 36C48 42.618 42.618 48 36 48C29.382 48 24 42.618 24 36C24 29.382 29.382 24 36 24C42.618 24 48 29.382 48 36ZM44 36C44 31.588 40.412 28 36 28C31.588 28 28 31.588 28 36C28 40.412 31.588 44 36 44C40.412 44 44 40.412 44 36ZM10.4 28.8C7.99197 26.994 5.00997 26 1.99997 26C0.895972 26 -2.83201e-05 26.894 -2.83201e-05 28C-2.83201e-05 29.106 0.895972 30 1.99997 30C4.14997 30 6.28197 30.71 7.99997 32L16.8 38.6C17.16 38.87 17.582 39 17.998 39C18.606 39 19.206 38.724 19.6 38.2C20.264 37.318 20.084 36.064 19.2 35.402L10.4 28.802V28.8ZM38.614 32.556L35.082 35.946C35.012 36.016 34.902 36.016 34.832 35.946L33.036 34.188C32.246 33.416 30.984 33.428 30.206 34.22C29.434 35.01 29.448 36.274 30.236 37.048L32.032 38.806C32.842 39.598 33.904 39.994 34.964 39.994C36.024 39.994 37.076 39.6 37.872 38.814L41.384 35.442C42.18 34.676 42.208 33.41 41.442 32.614C40.678 31.814 39.412 31.792 38.614 32.556Z" fill="#0B9FE9"/>
</g>
<defs>
<clipPath id="clip0_129_31">
<rect width="48" height="48" fill="white"/>
</clipPath>
</defs>
</svg>
