<svg width="60" height="60" viewBox="0 0 60 60" fill="none" xmlns="http://www.w3.org/2000/svg">
<path d="M11.25 27.5H2.5C1.1175 27.5 0 26.38 0 25C0 23.62 1.1175 22.5 2.5 22.5H11.25C12.6325 22.5 13.75 23.62 13.75 25C13.75 26.38 12.6325 27.5 11.25 27.5ZM25.385 5C25.385 3.62 24.2675 2.5 22.885 2.5H2.5C1.1175 2.5 0 3.62 0 5C0 6.38 1.1175 7.5 2.5 7.5H22.885C24.2675 7.5 25.385 6.38 25.385 5ZM20.385 15C20.385 13.62 19.2675 12.5 17.885 12.5H2.5C1.1175 12.5 0 13.62 0 15C0 16.38 1.1175 17.5 2.5 17.5H17.885C19.2675 17.5 20.385 16.38 20.385 15ZM37.6425 50C37.5575 50.405 37.4975 50.82 37.4975 51.25C37.4975 54.7025 40.295 57.5 43.7475 57.5C47.2 57.5 49.9975 54.7025 49.9975 51.25C49.9975 50.82 49.9375 50.405 49.8525 50H37.64H37.6425ZM37.4975 45V15C37.4975 9.9775 34.535 5.6475 30.26 3.66C30.34 4.095 30.3825 4.5425 30.3825 5C30.3825 8.455 28.035 11.3675 24.8525 12.235C25.1925 13.09 25.3825 14.0225 25.3825 15C25.3825 18.9925 22.2475 22.2625 18.3125 22.4875C18.5925 23.2725 18.7475 24.12 18.7475 25C18.7475 29.135 15.3825 32.5 11.2475 32.5H2.5C1.6225 32.5 0.7825 32.3475 0 32.07V35C0 40.5225 4.4775 45 10 45H37.5H37.4975ZM10.1425 50C10.0575 50.405 9.9975 50.82 9.9975 51.25C9.9975 54.7025 12.795 57.5 16.2475 57.5C19.7 57.5 22.4975 54.7025 22.4975 51.25C22.4975 50.82 22.4375 50.405 22.3525 50H10.1425ZM42.4975 45H49.9975C55.52 45 59.9975 40.5225 59.9975 35V32.5H42.4975V45ZM47.4975 12.5H42.4975V27.5H59.9975V25C59.9975 18.0975 54.4 12.5 47.4975 12.5Z" fill="#252B42"/>
</svg>
