<svg width="142" height="142" viewBox="0 0 142 142" fill="none" xmlns="http://www.w3.org/2000/svg">
<path fill-rule="evenodd" clip-rule="evenodd" d="M103.375 0C118.158 0 130.408 10.9516 132.447 25.1758L132.75 27.2861V38.209L134.248 39.0752C138.891 41.7618 142 46.7697 142 52.5C142 61.0551 135.055 68 126.5 68C117.945 68 111 61.0551 111 52.5C111 46.7697 114.109 41.7618 118.752 39.0752L120.25 38.209V29.375C120.25 20.0591 112.691 12.5 103.375 12.5C94.0591 12.5 86.5 20.0591 86.5 29.375V108.12C86.4354 126.831 71.2213 142 52.5 142C33.7329 142 18.5 126.767 18.5 108V104.297L16.5 103.59C6.88446 100.189 0 91.0101 0 80.25C0 66.5889 11.0889 55.5 24.75 55.5C38.4111 55.5 49.5 66.5889 49.5 80.25C49.5 91.0101 42.6155 100.189 33 103.59L31 104.297V108.056C31 109.153 31.0859 110.251 31.2578 111.339C31.4933 112.846 31.8936 114.335 32.4443 115.759L32.6895 116.365C33.7344 118.842 35.2495 121.107 37.1172 123.018C38.904 124.847 41.0169 126.362 43.3545 127.453C45.353 128.399 47.498 129.037 49.7061 129.318C52.0598 129.628 54.4483 129.541 56.7578 129.081L56.7656 129.08L56.7725 129.078C58.7645 128.671 60.7107 127.985 62.5254 127.023L62.5264 127.022C64.6484 125.897 66.5923 124.416 68.2412 122.638C69.8622 120.897 71.1832 118.901 72.1494 116.732L72.1523 116.727C72.9008 115.037 73.4374 113.245 73.7295 111.411L73.7305 111.412C73.9149 110.273 74 109.131 74 108V29.375C74 13.1609 87.1609 0 103.375 0ZM24.75 68C17.9871 68 12.5 73.4871 12.5 80.25C12.5 87.0129 17.9871 92.5 24.75 92.5C31.5129 92.5 37 87.0129 37 80.25C37 73.4871 31.5129 68 24.75 68Z" fill="#074758"/>
</svg>
