<svg width="48" height="48" viewBox="0 0 48 48" fill="none" xmlns="http://www.w3.org/2000/svg">
<g clip-path="url(#clip0_129_479)">
<path d="M14.116 9.924C15.794 9.924 17.306 10.616 18.394 11.726C15.744 13.526 13.998 16.564 13.998 20.002C13.998 20.658 14.07 21.296 14.192 21.918C14.166 21.918 14.142 21.926 14.116 21.926C10.802 21.926 8.116 19.24 8.116 15.926C8.116 12.612 10.802 9.924 14.116 9.924ZM34 10C32.318 10 30.802 10.698 29.712 11.812C32.298 13.622 34 16.61 34 20C34 20.678 33.93 21.34 33.8 21.98C33.868 21.982 33.932 22 34 22C37.314 22 40 19.314 40 16C40 12.686 37.314 10 34 10ZM24 26C27.314 26 30 23.314 30 20C30 16.686 27.314 14 24 14C20.686 14 18 16.686 18 20C18 23.314 20.686 26 24 26ZM24 30C20.492 30 17.33 32.126 16.13 35.292C15.738 36.326 16.258 37.48 17.292 37.872C18.322 38.262 19.48 37.744 19.872 36.71C20.486 35.088 22.146 34.002 24.002 34.002C25.858 34.002 27.518 35.09 28.132 36.71C28.434 37.508 29.196 38.002 30.002 38.002C30.238 38.002 30.478 37.96 30.71 37.874C31.742 37.482 32.262 36.328 31.872 35.294C30.672 32.13 27.51 30.002 24.002 30.002L24 30ZM31.4 26.394C30.346 26.726 29.76 27.848 30.092 28.902C30.424 29.954 31.55 30.538 32.6 30.21C33.046 30.07 33.516 30 34 30C35.856 30 37.516 31.088 38.13 32.708C38.432 33.506 39.194 34 40 34C40.236 34 40.476 33.958 40.708 33.872C41.74 33.48 42.26 32.326 41.87 31.292C40.67 28.128 37.508 26 34 26C33.108 26 32.234 26.132 31.4 26.394ZM14 26C10.492 26 7.33 28.126 6.13 31.292C5.738 32.326 6.258 33.48 7.292 33.872C7.526 33.96 7.764 34 8 34C8.806 34 9.568 33.508 9.87 32.708C10.484 31.086 12.144 30 14 30C14.484 30 14.956 30.07 15.4 30.21C16.45 30.538 17.576 29.954 17.908 28.902C18.24 27.848 17.654 26.726 16.6 26.394C15.766 26.132 14.892 26 14 26ZM14 44H10C6.692 44 4 41.308 4 38V34C4 32.894 3.104 32 2 32C0.896 32 0 32.894 0 34V38C0 43.514 4.486 48 10 48H14C15.104 48 16 47.106 16 46C16 44.894 15.104 44 14 44ZM46 32C44.896 32 44 32.894 44 34V38C44 41.308 41.308 44 38 44H34C32.896 44 32 44.894 32 46C32 47.106 32.896 48 34 48H38C43.514 48 48 43.514 48 38V34C48 32.894 47.104 32 46 32ZM38 0H34C32.896 0 32 0.894 32 2C32 3.106 32.896 4 34 4H38C41.308 4 44 6.692 44 10V14C44 15.106 44.896 16 46 16C47.104 16 48 15.106 48 14V10C48 4.486 43.514 0 38 0ZM2 16C3.104 16 4 15.106 4 14V10C4 6.692 6.692 4 10 4H14C15.104 4 16 3.106 16 2C16 0.894 15.104 0 14 0H10C4.486 0 0 4.486 0 10V14C0 15.106 0.896 16 2 16Z" fill="#0B9FE9"/>
</g>
<defs>
<clipPath id="clip0_129_479">
<rect width="48" height="48" fill="white"/>
</clipPath>
</defs>
</svg>
