<svg width="24" height="24" viewBox="0 0 24 24" fill="none" xmlns="http://www.w3.org/2000/svg">
<g clip-path="url(#clip0_129_1588)">
<path d="M12 24C18.6274 24 24 18.6274 24 12C24 5.37258 18.6274 0 12 0C5.37258 0 0 5.37258 0 12C0 18.6274 5.37258 24 12 24Z" fill="url(#paint0_linear_129_1588)"/>
<path d="M17.9889 7.03611C18.0957 6.3457 17.4393 5.80076 16.8254 6.07028L4.59883 11.4384C4.15861 11.6317 4.19082 12.2985 4.64739 12.4439L7.16879 13.2469C7.65007 13.4001 8.17113 13.3209 8.59139 13.0305L14.2761 9.10311C14.4476 8.98466 14.6344 9.22843 14.4879 9.37937L10.3959 13.5982C9.99899 14.0075 10.0778 14.701 10.5553 15.0004L15.1367 17.8734C15.6506 18.1956 16.3116 17.8719 16.4077 17.2509L17.9889 7.03611Z" fill="white"/>
</g>
<defs>
<linearGradient id="paint0_linear_129_1588" x1="12" y1="0" x2="12" y2="24" gradientUnits="userSpaceOnUse">
<stop stop-color="#37BBFE"/>
<stop offset="1" stop-color="#007DBB"/>
</linearGradient>
<clipPath id="clip0_129_1588">
<rect width="24" height="24" fill="white"/>
</clipPath>
</defs>
</svg>
