<svg width="48" height="48" viewBox="0 0 48 48" fill="none" xmlns="http://www.w3.org/2000/svg">
<g clip-path="url(#clip0_129_208)">
<path d="M2.00001 7C2.00001 4.238 4.23801 2 7.00001 2C9.762 2 12 4.238 12 7C12 9.762 9.762 12 7.00001 12C4.23801 12 2.00001 9.762 2.00001 7ZM47.464 25.29C46.522 23.93 44.65 23.594 43.288 24.536L17.288 42.578C15.926 43.524 15.588 45.392 16.534 46.754C17.484 48.126 19.364 48.444 20.71 47.508L46.71 29.466C48.072 28.52 48.41 26.652 47.464 25.29ZM20 35V32C20 29.794 18.206 28 16 28H12V22H13.344C15.214 22 16.97 21.272 18.294 19.95L22.122 16.122C23.294 14.95 23.294 13.052 22.122 11.88C20.95 10.708 19.052 10.708 17.88 11.88L14.052 15.708C13.864 15.894 13.608 16 13.344 16H7.00001C4.23801 16 2.00001 18.238 2.00001 21V39.23C2.00001 39.356 1.97401 39.484 1.93001 39.6L0.214005 43.884C-0.401995 45.424 0.346005 47.17 1.88401 47.784C3.38201 48.394 5.17001 47.668 5.78401 46.114L7.50201 41.82C7.83001 40.99 7.99801 40.118 7.99801 39.23V34H13.998V35C13.998 36.656 15.342 38 16.998 38C18.654 38 19.998 36.656 19.998 35H20ZM23.972 12C23.972 5.382 29.354 0 35.972 0C42.59 0 47.972 5.382 47.972 12C47.972 18.618 42.59 24 35.972 24C29.354 24 23.972 18.618 23.972 12ZM29.972 12C29.972 15.308 32.664 18 35.972 18C39.28 18 41.972 15.308 41.972 12C41.972 8.692 39.28 6 35.972 6C32.664 6 29.972 8.692 29.972 12Z" fill="#0B9FE9"/>
</g>
<defs>
<clipPath id="clip0_129_208">
<rect width="48" height="48" fill="white"/>
</clipPath>
</defs>
</svg>
