<svg width="60" height="60" viewBox="0 0 60 60" fill="none" xmlns="http://www.w3.org/2000/svg">
<path d="M32.5 32.54H27.5C15.0725 32.54 5 42.6125 5 55.04V56.25C5 58.32 6.68 60 8.75 60H18.59C15 60 15 56.25 15 56.25V52.5H25C25 52.5 25 55 27.5 55H32.5C32.5 55 35 55.2625 35 52.5H45C45 52.5 45 54.18 45 56.25C45 56.25 45.1275 60 41.25 60H51.25C53.32 60 55 58.32 55 56.25V55.04C55 42.6125 44.9275 32.54 32.5 32.54ZM45 47.5H15V43.75C15 41.68 16.68 40 18.75 40H25C25 40 25 42.5 27.5 42.5H32.5C32.5 42.5 35 42.7625 35 40H41.25C43.32 40 45 41.68 45 43.75C45 45.82 45 47.5 45 47.5ZM13.75 15H15C15 23.2725 21.7275 30 30 30C38.2725 30 45 23.2725 45 15C45 6.7275 38.2725 0 30 0C24.4625 0 19.6275 3.025 17.03 7.5H13.75C11.6775 7.5 10 9.18 10 11.25C10 13.32 11.6775 15 13.75 15ZM30 22.5C25.865 22.5 22.5 19.135 22.5 15H37.5C37.5 19.135 34.135 22.5 30 22.5Z" fill="#252B42"/>
</svg>
