<svg width="24" height="18" viewBox="0 0 24 18" fill="none" xmlns="http://www.w3.org/2000/svg">
<g clip-path="url(#clip0_260_537)">
<path d="M0 12H24V18H0V12Z" fill="#1EB53A"/>
<path d="M0 0H24V6H0V0Z" fill="#0099B5"/>
<path d="M0 5.76001H24V12.24H0V5.76001Z" fill="#CE1126"/>
<path d="M0 6.12012H24V11.8801H0V6.12012Z" fill="white"/>
<path d="M5.03988 5.03997C6.23282 5.03997 7.19988 4.07291 7.19988 2.87997C7.19988 1.68704 6.23282 0.719971 5.03988 0.719971C3.84695 0.719971 2.87988 1.68704 2.87988 2.87997C2.87988 4.07291 3.84695 5.03997 5.03988 5.03997Z" fill="white"/>
<path d="M5.7601 5.03997C6.95303 5.03997 7.9201 4.07291 7.9201 2.87997C7.9201 1.68704 6.95303 0.719971 5.7601 0.719971C4.56716 0.719971 3.6001 1.68704 3.6001 2.87997C3.6001 4.07291 4.56716 5.03997 5.7601 5.03997Z" fill="#0099B5"/>
<path d="M9.79134 4.17676L9.65454 4.58716L9.86334 4.65916" fill="white"/>
<path d="M9.79142 4.17676L9.92822 4.58716L9.71942 4.65916" fill="white"/>
<path d="M10.2022 4.47532L9.7696 4.47204L9.76565 4.69287" fill="white"/>
<path d="M10.2021 4.47536L9.85407 4.73229L9.72107 4.55596" fill="white"/>
<path d="M9.38041 4.47536L9.72845 4.73229L9.86145 4.55596" fill="white"/>
<path d="M9.38033 4.47532L9.81292 4.47204L9.81687 4.69287" fill="white"/>
<path d="M10.0451 4.95834L9.91453 4.54591L9.70329 4.61039" fill="white"/>
<path d="M10.045 4.95841L9.6931 4.7068L9.8197 4.52582" fill="white"/>
<path d="M9.53727 4.95818L9.88921 4.70658L9.7626 4.52562" fill="white"/>
<path d="M9.53719 4.95834L9.66774 4.54591L9.87898 4.61039" fill="white"/>
<path d="M9.79134 2.44873L9.65454 2.85913L9.86334 2.93113" fill="white"/>
<path d="M9.79142 2.44873L9.92822 2.85913L9.71942 2.93113" fill="white"/>
<path d="M10.2022 2.74729L9.7696 2.74401L9.76565 2.96484" fill="white"/>
<path d="M10.2021 2.74734L9.85407 3.00426L9.72107 2.82793" fill="white"/>
<path d="M9.38041 2.74734L9.72845 3.00426L9.86145 2.82793" fill="white"/>
<path d="M9.38033 2.74729L9.81292 2.74401L9.81687 2.96484" fill="white"/>
<path d="M10.0451 3.23031L9.91453 2.81788L9.70329 2.88236" fill="white"/>
<path d="M10.045 3.23038L9.6931 2.97877L9.8197 2.79779" fill="white"/>
<path d="M9.53727 3.23015L9.88921 2.97855L9.7626 2.7976" fill="white"/>
<path d="M9.53719 3.23031L9.66774 2.81788L9.87898 2.88236" fill="white"/>
<path d="M9.79134 0.720703L9.65454 1.1311L9.86334 1.2031" fill="white"/>
<path d="M9.79142 0.720703L9.92822 1.1311L9.71942 1.2031" fill="white"/>
<path d="M10.2022 1.01926L9.7696 1.01598L9.76565 1.23681" fill="white"/>
<path d="M10.2021 1.01931L9.85407 1.27623L9.72107 1.0999" fill="white"/>
<path d="M9.38041 1.01931L9.72845 1.27623L9.86145 1.0999" fill="white"/>
<path d="M9.38033 1.01926L9.81292 1.01598L9.81687 1.23681" fill="white"/>
<path d="M10.0451 1.50228L9.91453 1.08985L9.70329 1.15433" fill="white"/>
<path d="M10.045 1.50235L9.6931 1.25074L9.8197 1.06976" fill="white"/>
<path d="M9.53727 1.50212L9.88921 1.25052L9.7626 1.06957" fill="white"/>
<path d="M9.53719 1.50228L9.66774 1.08985L9.87898 1.15433" fill="white"/>
<path d="M11.5194 4.17676L11.3826 4.58716L11.5914 4.65916" fill="white"/>
<path d="M11.5195 4.17676L11.6562 4.58716L11.4474 4.65916" fill="white"/>
<path d="M11.9302 4.47532L11.4976 4.47204L11.4937 4.69287" fill="white"/>
<path d="M11.9301 4.47536L11.5821 4.73229L11.4491 4.55596" fill="white"/>
<path d="M11.1084 4.47536L11.4565 4.73229L11.5895 4.55596" fill="white"/>
<path d="M11.1084 4.47532L11.5409 4.47204L11.5449 4.69287" fill="white"/>
<path d="M11.7731 4.95834L11.6426 4.54591L11.4313 4.61039" fill="white"/>
<path d="M11.773 4.95841L11.4211 4.7068L11.5477 4.52582" fill="white"/>
<path d="M11.2653 4.95818L11.6172 4.70658L11.4906 4.52562" fill="white"/>
<path d="M11.2652 4.95834L11.3958 4.54591L11.607 4.61039" fill="white"/>
<path d="M11.5194 2.44873L11.3826 2.85913L11.5914 2.93113" fill="white"/>
<path d="M11.5195 2.44873L11.6562 2.85913L11.4474 2.93113" fill="white"/>
<path d="M11.9302 2.74729L11.4976 2.74401L11.4937 2.96484" fill="white"/>
<path d="M11.9301 2.74734L11.5821 3.00426L11.4491 2.82793" fill="white"/>
<path d="M11.1084 2.74734L11.4565 3.00426L11.5895 2.82793" fill="white"/>
<path d="M11.1084 2.74729L11.5409 2.74401L11.5449 2.96484" fill="white"/>
<path d="M11.7731 3.23031L11.6426 2.81788L11.4313 2.88236" fill="white"/>
<path d="M11.773 3.23038L11.4211 2.97877L11.5477 2.79779" fill="white"/>
<path d="M11.2653 3.23015L11.6172 2.97855L11.4906 2.7976" fill="white"/>
<path d="M11.2652 3.23031L11.3958 2.81788L11.607 2.88236" fill="white"/>
<path d="M11.5194 0.720703L11.3826 1.1311L11.5914 1.2031" fill="white"/>
<path d="M11.5195 0.720703L11.6562 1.1311L11.4474 1.2031" fill="white"/>
<path d="M11.9302 1.01926L11.4976 1.01598L11.4937 1.23681" fill="white"/>
<path d="M11.9301 1.01931L11.5821 1.27623L11.4491 1.0999" fill="white"/>
<path d="M11.1084 1.01931L11.4565 1.27623L11.5895 1.0999" fill="white"/>
<path d="M11.1084 1.01926L11.5409 1.01598L11.5449 1.23681" fill="white"/>
<path d="M11.7731 1.50228L11.6426 1.08985L11.4313 1.15433" fill="white"/>
<path d="M11.773 1.50235L11.4211 1.25074L11.5477 1.06976" fill="white"/>
<path d="M11.2653 1.50212L11.6172 1.25052L11.4906 1.06957" fill="white"/>
<path d="M11.2652 1.50228L11.3958 1.08985L11.607 1.15433" fill="white"/>
<path d="M13.2474 4.17676L13.1106 4.58716L13.3194 4.65916" fill="white"/>
<path d="M13.2475 4.17676L13.3843 4.58716L13.1755 4.65916" fill="white"/>
<path d="M13.6582 4.47532L13.2257 4.47204L13.2217 4.69287" fill="white"/>
<path d="M13.6582 4.47536L13.3101 4.73229L13.1771 4.55596" fill="white"/>
<path d="M12.8365 4.47536L13.1845 4.73229L13.3175 4.55596" fill="white"/>
<path d="M12.8364 4.47532L13.269 4.47204L13.2729 4.69287" fill="white"/>
<path d="M13.5011 4.95834L13.3706 4.54591L13.1593 4.61039" fill="white"/>
<path d="M13.5011 4.95841L13.1492 4.7068L13.2758 4.52582" fill="white"/>
<path d="M12.9933 4.95818L13.3453 4.70658L13.2187 4.52562" fill="white"/>
<path d="M12.9932 4.95834L13.1238 4.54591L13.335 4.61039" fill="white"/>
<path d="M13.2474 2.44873L13.1106 2.85913L13.3194 2.93113" fill="white"/>
<path d="M13.2475 2.44873L13.3843 2.85913L13.1755 2.93113" fill="white"/>
<path d="M13.6582 2.74729L13.2257 2.74401L13.2217 2.96484" fill="white"/>
<path d="M13.6582 2.74734L13.3101 3.00426L13.1771 2.82793" fill="white"/>
<path d="M12.8365 2.74734L13.1845 3.00426L13.3175 2.82793" fill="white"/>
<path d="M12.8364 2.74729L13.269 2.74401L13.2729 2.96484" fill="white"/>
<path d="M13.5011 3.23031L13.3706 2.81788L13.1593 2.88236" fill="white"/>
<path d="M13.5011 3.23038L13.1492 2.97877L13.2758 2.79779" fill="white"/>
<path d="M12.9933 3.23015L13.3453 2.97855L13.2187 2.7976" fill="white"/>
<path d="M12.9932 3.23031L13.1238 2.81788L13.335 2.88236" fill="white"/>
<path d="M13.2474 0.720703L13.1106 1.1311L13.3194 1.2031" fill="white"/>
<path d="M13.2475 0.720703L13.3843 1.1311L13.1755 1.2031" fill="white"/>
<path d="M13.6582 1.01926L13.2257 1.01598L13.2217 1.23681" fill="white"/>
<path d="M13.6582 1.01931L13.3101 1.27623L13.1771 1.0999" fill="white"/>
<path d="M12.8365 1.01931L13.1845 1.27623L13.3175 1.0999" fill="white"/>
<path d="M12.8364 1.01926L13.269 1.01598L13.2729 1.23681" fill="white"/>
<path d="M13.5011 1.50228L13.3706 1.08985L13.1593 1.15433" fill="white"/>
<path d="M13.5011 1.50235L13.1492 1.25074L13.2758 1.06976" fill="white"/>
<path d="M12.9933 1.50212L13.3453 1.25052L13.2187 1.06957" fill="white"/>
<path d="M12.9932 1.50228L13.1238 1.08985L13.335 1.15433" fill="white"/>
<path d="M6.33529 4.17676L6.19849 4.58716L6.40729 4.65916" fill="white"/>
<path d="M6.33537 4.17676L6.47217 4.58716L6.26337 4.65916" fill="white"/>
<path d="M6.74613 4.47532L6.31354 4.47204L6.30959 4.69287" fill="white"/>
<path d="M6.74606 4.47536L6.39802 4.73229L6.26502 4.55596" fill="white"/>
<path d="M5.92435 4.47536L6.27239 4.73229L6.40539 4.55596" fill="white"/>
<path d="M5.92428 4.47532L6.35687 4.47204L6.36082 4.69287" fill="white"/>
<path d="M6.58903 4.95834L6.45848 4.54591L6.24724 4.61039" fill="white"/>
<path d="M6.58895 4.95841L6.23704 4.7068L6.36365 4.52582" fill="white"/>
<path d="M6.08121 4.95818L6.43316 4.70658L6.30655 4.52562" fill="white"/>
<path d="M6.08113 4.95834L6.21169 4.54591L6.42293 4.61039" fill="white"/>
<path d="M8.06331 4.17676L7.92651 4.58716L8.13531 4.65916" fill="white"/>
<path d="M8.0634 4.17676L8.2002 4.58716L7.9914 4.65916" fill="white"/>
<path d="M8.47416 4.47532L8.04157 4.47204L8.03762 4.69287" fill="white"/>
<path d="M8.47408 4.47536L8.12604 4.73229L7.99304 4.55596" fill="white"/>
<path d="M7.65238 4.47536L8.00042 4.73229L8.13342 4.55596" fill="white"/>
<path d="M7.65231 4.47532L8.08489 4.47204L8.08885 4.69287" fill="white"/>
<path d="M8.31706 4.95834L8.18651 4.54591L7.97526 4.61039" fill="white"/>
<path d="M8.31697 4.95841L7.96507 4.7068L8.09167 4.52582" fill="white"/>
<path d="M7.80924 4.95818L8.16118 4.70658L8.03457 4.52562" fill="white"/>
<path d="M7.80916 4.95834L7.93971 4.54591L8.15096 4.61039" fill="white"/>
<path d="M8.06331 2.44873L7.92651 2.85913L8.13531 2.93113" fill="white"/>
<path d="M8.0634 2.44873L8.2002 2.85913L7.9914 2.93113" fill="white"/>
<path d="M8.47416 2.74729L8.04157 2.74401L8.03762 2.96484" fill="white"/>
<path d="M8.47408 2.74734L8.12604 3.00426L7.99304 2.82793" fill="white"/>
<path d="M7.65238 2.74734L8.00042 3.00426L8.13342 2.82793" fill="white"/>
<path d="M7.65231 2.74729L8.08489 2.74401L8.08885 2.96484" fill="white"/>
<path d="M8.31706 3.23031L8.18651 2.81788L7.97526 2.88236" fill="white"/>
<path d="M8.31697 3.23038L7.96507 2.97877L8.09167 2.79779" fill="white"/>
<path d="M7.80924 3.23015L8.16118 2.97855L8.03457 2.7976" fill="white"/>
<path d="M7.80916 3.23031L7.93971 2.81788L8.15096 2.88236" fill="white"/>
</g>
<defs>
<clipPath id="clip0_260_537">
<rect width="24" height="18" rx="2" fill="white"/>
</clipPath>
</defs>
</svg>
