<svg width="158" height="58" viewBox="0 0 158 58" fill="none" xmlns="http://www.w3.org/2000/svg">
<g clip-path="url(#clip0_129_36)">
<path d="M21 49.0764C32.0879 49.0764 41.0765 40.0879 41.0765 29C41.0765 17.912 32.0879 8.92346 21 8.92346C9.91206 8.92346 0.923508 17.912 0.923508 29C0.923508 40.0879 9.91206 49.0764 21 49.0764Z" fill="#252B42"/>
<path d="M31.06 39.06L25.3119 44.8081L22.4379 41.934L28.1859 36.1859L31.06 39.06Z" fill="white"/>
<path d="M36.8081 33.3119L33.934 36.186L31.06 33.3119L33.934 30.4379L36.8081 33.3119Z" fill="white"/>
<path d="M19.5638 39.06L13.8157 44.8081L10.9416 41.934L16.6897 36.1859L19.5638 39.06Z" fill="white"/>
<path d="M25.3119 33.3119L22.4378 36.186L19.5638 33.3119L22.4378 30.4379L25.3119 33.3119Z" fill="white"/>
<path d="M28.1859 24.6898L33.934 18.9417L36.8081 21.8157L28.1859 30.4379L22.4378 24.6898L16.6898 30.4379L13.8157 27.5638L22.4378 18.9417L28.1859 24.6898Z" fill="white"/>
<path d="M13.8157 33.3119L8.06759 39.06L5.19354 36.186L10.9416 30.4379L13.8157 33.3119Z" fill="white"/>
<path d="M31.06 16.0675L28.1859 18.9416L25.3119 16.0675L28.1859 13.1935L31.06 16.0675Z" fill="white"/>
<path d="M13.8157 21.8157L8.06759 27.5638L5.19354 24.6898L10.9416 18.9417L13.8157 21.8157Z" fill="white"/>
<path d="M19.5638 16.0675L16.6898 18.9416L13.8157 16.0675L16.6898 13.1935L19.5638 16.0675Z" fill="white"/>
</g>
<path d="M60.512 21.2H64.4V38H60.512V21.2ZM52.88 38H48.992V21.2H52.88V38ZM60.8 31.112H52.592V27.824H60.8V31.112ZM68.2108 38V25.088H71.9548V38H68.2108ZM70.0828 23.288C69.3948 23.288 68.8348 23.088 68.4028 22.688C67.9708 22.288 67.7548 21.792 67.7548 21.2C67.7548 20.608 67.9708 20.112 68.4028 19.712C68.8348 19.312 69.3948 19.112 70.0828 19.112C70.7708 19.112 71.3308 19.304 71.7628 19.688C72.1948 20.056 72.4108 20.536 72.4108 21.128C72.4108 21.752 72.1948 22.272 71.7628 22.688C71.3468 23.088 70.7868 23.288 70.0828 23.288ZM79.8736 38.192C78.7696 38.192 77.7056 38.064 76.6816 37.808C75.6736 37.536 74.8736 37.2 74.2816 36.8L75.5296 34.112C76.1216 34.48 76.8176 34.784 77.6176 35.024C78.4336 35.248 79.2336 35.36 80.0176 35.36C80.8816 35.36 81.4896 35.256 81.8416 35.048C82.2096 34.84 82.3936 34.552 82.3936 34.184C82.3936 33.88 82.2496 33.656 81.9616 33.512C81.6896 33.352 81.3216 33.232 80.8576 33.152C80.3936 33.072 79.8816 32.992 79.3216 32.912C78.7776 32.832 78.2256 32.728 77.6656 32.6C77.1056 32.456 76.5936 32.248 76.1296 31.976C75.6656 31.704 75.2896 31.336 75.0016 30.872C74.7296 30.408 74.5936 29.808 74.5936 29.072C74.5936 28.256 74.8256 27.536 75.2896 26.912C75.7696 26.288 76.4576 25.8 77.3536 25.448C78.2496 25.08 79.3216 24.896 80.5696 24.896C81.4496 24.896 82.3456 24.992 83.2576 25.184C84.1696 25.376 84.9296 25.656 85.5376 26.024L84.2896 28.688C83.6656 28.32 83.0336 28.072 82.3936 27.944C81.7696 27.8 81.1616 27.728 80.5696 27.728C79.7376 27.728 79.1296 27.84 78.7456 28.064C78.3616 28.288 78.1696 28.576 78.1696 28.928C78.1696 29.248 78.3056 29.488 78.5776 29.648C78.8656 29.808 79.2416 29.936 79.7056 30.032C80.1696 30.128 80.6736 30.216 81.2176 30.296C81.7776 30.36 82.3376 30.464 82.8976 30.608C83.4576 30.752 83.9616 30.96 84.4096 31.232C84.8736 31.488 85.2496 31.848 85.5376 32.312C85.8256 32.76 85.9696 33.352 85.9696 34.088C85.9696 34.888 85.7296 35.6 85.2496 36.224C84.7696 36.832 84.0736 37.312 83.1616 37.664C82.2656 38.016 81.1696 38.192 79.8736 38.192ZM94.5236 38.192C93.1476 38.192 91.9236 37.904 90.8516 37.328C89.7956 36.752 88.9556 35.968 88.3316 34.976C87.7236 33.968 87.4196 32.824 87.4196 31.544C87.4196 30.248 87.7236 29.104 88.3316 28.112C88.9556 27.104 89.7956 26.32 90.8516 25.76C91.9236 25.184 93.1476 24.896 94.5236 24.896C95.8836 24.896 97.0996 25.184 98.1716 25.76C99.2436 26.32 100.084 27.096 100.692 28.088C101.3 29.08 101.604 30.232 101.604 31.544C101.604 32.824 101.3 33.968 100.692 34.976C100.084 35.968 99.2436 36.752 98.1716 37.328C97.0996 37.904 95.8836 38.192 94.5236 38.192ZM94.5236 35.12C95.1476 35.12 95.7076 34.976 96.2036 34.688C96.6996 34.4 97.0916 33.992 97.3796 33.464C97.6676 32.92 97.8116 32.28 97.8116 31.544C97.8116 30.792 97.6676 30.152 97.3796 29.624C97.0916 29.096 96.6996 28.688 96.2036 28.4C95.7076 28.112 95.1476 27.968 94.5236 27.968C93.8996 27.968 93.3396 28.112 92.8436 28.4C92.3476 28.688 91.9476 29.096 91.6436 29.624C91.3556 30.152 91.2116 30.792 91.2116 31.544C91.2116 32.28 91.3556 32.92 91.6436 33.464C91.9476 33.992 92.3476 34.4 92.8436 34.688C93.3396 34.976 93.8996 35.12 94.5236 35.12ZM111.838 38.192C110.702 38.192 109.726 37.952 108.91 37.472C108.094 36.992 107.47 36.264 107.038 35.288C106.606 34.296 106.39 33.048 106.39 31.544C106.39 30.024 106.614 28.776 107.062 27.8C107.526 26.824 108.166 26.096 108.982 25.616C109.798 25.136 110.75 24.896 111.838 24.896C113.054 24.896 114.142 25.168 115.102 25.712C116.078 26.256 116.846 27.024 117.406 28.016C117.982 29.008 118.27 30.184 118.27 31.544C118.27 32.888 117.982 34.056 117.406 35.048C116.846 36.04 116.078 36.816 115.102 37.376C114.142 37.92 113.054 38.192 111.838 38.192ZM104.206 38V20.192H107.95V27.704L107.71 31.52L107.782 35.36V38H104.206ZM111.19 35.12C111.814 35.12 112.366 34.976 112.846 34.688C113.342 34.4 113.734 33.992 114.022 33.464C114.326 32.92 114.478 32.28 114.478 31.544C114.478 30.792 114.326 30.152 114.022 29.624C113.734 29.096 113.342 28.688 112.846 28.4C112.366 28.112 111.814 27.968 111.19 27.968C110.566 27.968 110.006 28.112 109.51 28.4C109.014 28.688 108.622 29.096 108.334 29.624C108.046 30.152 107.902 30.792 107.902 31.544C107.902 32.28 108.046 32.92 108.334 33.464C108.622 33.992 109.014 34.4 109.51 34.688C110.006 34.976 110.566 35.12 111.19 35.12ZM127.116 38.192C125.724 38.192 124.484 37.912 123.396 37.352C122.308 36.776 121.452 35.984 120.828 34.976C120.22 33.968 119.916 32.824 119.916 31.544C119.916 30.248 120.22 29.104 120.828 28.112C121.452 27.104 122.308 26.32 123.396 25.76C124.484 25.184 125.724 24.896 127.116 24.896C128.476 24.896 129.66 25.184 130.668 25.76C131.676 26.32 132.42 27.128 132.9 28.184L129.996 29.744C129.66 29.136 129.236 28.688 128.724 28.4C128.228 28.112 127.684 27.968 127.092 27.968C126.452 27.968 125.876 28.112 125.364 28.4C124.852 28.688 124.444 29.096 124.14 29.624C123.852 30.152 123.708 30.792 123.708 31.544C123.708 32.296 123.852 32.936 124.14 33.464C124.444 33.992 124.852 34.4 125.364 34.688C125.876 34.976 126.452 35.12 127.092 35.12C127.684 35.12 128.228 34.984 128.724 34.712C129.236 34.424 129.66 33.968 129.996 33.344L132.9 34.928C132.42 35.968 131.676 36.776 130.668 37.352C129.66 37.912 128.476 38.192 127.116 38.192ZM142.934 24.896C143.958 24.896 144.87 25.104 145.67 25.52C146.486 25.92 147.126 26.544 147.59 27.392C148.054 28.224 148.286 29.296 148.286 30.608V38H144.542V31.184C144.542 30.144 144.31 29.376 143.846 28.88C143.398 28.384 142.758 28.136 141.926 28.136C141.334 28.136 140.798 28.264 140.318 28.52C139.854 28.76 139.486 29.136 139.214 29.648C138.958 30.16 138.83 30.816 138.83 31.616V38H135.086V20.192H138.83V28.664L137.99 27.584C138.454 26.72 139.118 26.056 139.982 25.592C140.846 25.128 141.83 24.896 142.934 24.896ZM151.78 38V25.088H155.524V38H151.78ZM153.652 23.288C152.964 23.288 152.404 23.088 151.972 22.688C151.54 22.288 151.324 21.792 151.324 21.2C151.324 20.608 151.54 20.112 151.972 19.712C152.404 19.312 152.964 19.112 153.652 19.112C154.34 19.112 154.9 19.304 155.332 19.688C155.764 20.056 155.98 20.536 155.98 21.128C155.98 21.752 155.764 22.272 155.332 22.688C154.916 23.088 154.356 23.288 153.652 23.288Z" fill="#252B42"/>
<defs>
<clipPath id="clip0_129_36">
<rect width="42" height="42" fill="white" transform="translate(0 8)"/>
</clipPath>
</defs>
</svg>
